<svg width="60" height="60" viewBox="0 0 1024 1024" xmlns="http://www.w3.org/2000/svg">
  <path style="fill: rgb(247, 188, 63);" d="M511.955 12.403c-24.71 0-49.433 9.38-68.216 28.163l-110.639 110.639h-105.188c-42.237 0-76.787 34.55-76.787 76.787v105.148l-110.639 110.639c-37.537 37.569-37.537 98.902 0 136.471l110.639 110.639v105.109c0 42.237 34.55 76.787 76.787 76.787h105.188l110.639 110.678c18.785 18.769 43.502 28.163 68.216 28.163s49.431-9.395 68.216-28.163l110.639-110.678h105.188c42.237 0 76.787-34.55 76.787-76.787v-105.109l110.639-110.639c37.567-37.567 37.567-98.905 0-136.471l-110.639-110.639v-105.148c0-42.237-34.55-76.787-76.787-76.787h-105.188l-110.639-110.639c-18.783-18.783-43.506-28.163-68.216-28.163z" fill="rgb(251, 200, 48)"></path>
  <g transform="translate(18.68 0)">
    <path style="fill: rgb(69, 28, 21);" d="M945.76 579.93l-106.181 110.159v104.736c0 42.171-33.050 76.468-73.688 76.468h-100.928l-106.181 110.188c-18.040 18.72-41.75 28.095-65.46 28.095s-47.42-9.346-65.46-28.095l-106.153-110.188h-100.928c-40.638 0-73.688-34.297-73.688-76.468v-104.736l-106.181-110.159c-36.107-37.47-36.107-98.391 0-135.86l106.181-110.188v-104.736c0-42.143 33.050-76.468 73.688-76.468h100.928l106.153-110.159c34.995-36.316 95.98-36.316 130.92 0l106.181 110.159h100.928c40.638 0 73.688 34.326 73.688 76.468v104.736l106.181 110.188c36.079 37.47 36.079 98.391 0 135.86zM955.544 433.916l-102.123-105.977v-98.766c0-50.104-39.276-90.862-87.53-90.862h-95.202l-102.123-105.977c-20.097-20.855-46.809-32.335-75.244-32.335-28.408 0-55.148 11.48-75.244 32.335l-102.123 105.977h-95.174c-48.282 0-87.53 40.758-87.53 90.833v98.794l-102.123 105.977c-41.5 43.037-41.5 113.102 0 156.167l102.123 105.977v98.766c0 50.104 39.248 90.862 87.53 90.862h95.174l102.123 105.948c20.097 20.855 46.837 32.364 75.244 32.364 28.435 0 55.148-11.509 75.244-32.364l102.123-105.948h95.202c48.254 0 87.53-40.758 87.53-90.862v-98.766l102.123-105.977c41.472-43.066 41.472-113.13 0-156.167z" fill="rgb(88, 39, 26)"></path>
    <path style="fill: rgb(69, 28, 21);" d="M802.909 768.375c5.754-5.192 6.143-15.115-0.695-19.384-8.367-5.25-23.488-3.231-31.938 1.183-8.728 4.586-14.982 18.259-2.335 21.865 4.864 1.385 8.116 0.317 12.564 0.288 5.392-0.029 10.201 0.26 15.649-0.577 2.863-0.462 4.725-1.529 6.754-3.375zM772.055 712.733c-12.564-18.432-55.787-5.509-70.408 5.596-11.23 8.538-12.453 16.73 2.057 21.922 17.539 6.259 33.105 4.904 50.7-0.288 5.726-1.702 15.816-6.432 18.123-12.519 0.278-0.721 2.001-7.009 2.029-7.413 0.028-0.375-2.279-6.981-2.502-7.298zM582.596 666.811l1.473 57.084c1.612 3.461 7.755 2.394 10.813 3.086 2.224 0.519 4.253 2.135 6.31 2.423 6.866 1.038 9.951-1.298 9.923-8.452-0.056-14.74-10.646-26.249-18.040-37.729-3.558-5.509-5.921-12.028-10.479-16.413zM792.012 669.35c1.473-11.538-12.675-34.297-23.571-35.653-8.645-1.096-12.564 1.038-19.93 2.596-22.543 4.731-44.78 9.23-66.961 14.624-12.87 3.144-25.767 6.404-38.609 9.634l22.848 47.162zM457.375 624.957c-2.78-1.702-25.044-4.384-29.492-4.788-41.055-3.548-73.41-1.385-106.181 26.047-3.836 3.202-7.144 7.298-10.757 10.759 4.503-0.548 9.534 2.019 13.398 2.625 14.176 2.221 39.999-17.682 56.843-15.115 10.007 1.558 18.707-0.75 29.381-0.087 18.929 1.211 37.136 5.394 54.536 11.451 16.622 5.769 28.63 10.817 41.583 23.047 5.809 5.509 16.817 15.374 21.431 21.634 3.447 4.644 4.781 10.528 8.172 15.23l23.877 5.654c-0.778-5.596 0.111-7.673-2.418-13.182-3.558-7.73-5.837-12.807-10.396-19.615-2.39-3.519-4.253-10.442-7.005-13.961-3.085-3.981-12.842-12.057-16.844-15.894-15.594-14.826-32.827-21.605-52.34-28.903-6.032-2.279-8.228-1.442-13.787-4.904zM749.901 625.649c-2.057-4.413 3.058-6.807 3.169-7.557 0.083-0.548-0.612-1.731-0.556-2.711 0.083-1.933 1.445-3.577-0.389-4.99-12.036-6.231-21.542-16.817-35.44-17.826-12.147-0.923-23.877 2.365-35.607 4.183-22.126 3.433-43.779 6.923-66.044 9.346-1.195 0.115-6.588 1.010-6.56 2.106l28.102 40.527c7.588-0.663 14.537-3.952 21.848-5.682 23.905-5.538 47.615-9.23 71.964-13.009 6.365-0.981 12.536-5.682 19.513-4.384zM293.905 615.121c0.945 6.548-1.334 27.634 4.976 30.633 2.251 1.096 8.672-0.865 10.813-2.163 0.695-0.404 11.063-8.769 11.619-9.403 0.945-1.010 1.668-1.961 2.029-3.346l0.528-39.2c-7.533 2.163-12.48 8.711-19.402 12.49zM781.228 628.938c1.056 1.125 3.141 1.76 4.42 3 8.506 8.192 22.821 25.989 22.070 1.298-0.25-7.846-6.060-14.105-9.201-20.913l-17.567-21.576c1.529 10.528-2.78 22.24-1.807 32.71 0.222 2.192 0.556 3.808 2.085 5.481zM546.711 619.909c-4.281-6.952-11.647-15.086-17.595-20.682-1.418-1.356-12.731-11.48-13.787-10.269 1.862 14.884-0.973 29.912-0.417 44.739 2.029 2.077 3.752 4.673 6.588 5.682 1.529 0.548 3.919 0.26 4.837 0.808 1.779 1.096 7.227 9.836 10.618 11.798 9.979 5.827 8.394-2.279 9.451-7.932 0.278-1.5 1.473-2.481 1.723-4.471 0.417-3.086 0.889-12.057 0.862-15.259-0.028-3.49-1.473-3.115-2.279-4.413zM690.39 585.382c0.5-2.51-2.696-2.336-3.308-4.183-0.528-1.615 0.445-3.75-0.973-5.25-0.5-0.519-8.283-3.058-9.117-3.029-1.918 0.058-4.614 0.692-7.7 0.779-20.792 0.721-44.112 2.913-64.626 6.404-6.31 1.096-12.286 3.461-18.651 3.952 0.028 0.981 11.202 13.125 12.48 13.903 1.696 1.038 9.117 0.404 11.091-0.231 3.252-1.010 1.723-1.010 6.087-1.702 19.68-3.173 39.832-3.346 59.539-7.154 4.725-0.894 10.062-3.865 15.177-3.49zM574.813 572.863c3.002 9.952 13.064 2.856 20.124 4.356l1.445-2.135-1.306-2.221zM473.913 613.131c-1.084-3.692 1.529-7.355 1.779-10.24 0.278-3.346 0.334-27.98-0.445-29.191-5.003-2.683-10.84-2.711-16.316-3.634-1.362-0.231-2.363-1.442-3.586-1.644-4.614-0.721-10.201 0.548-15.038-0.952l0.889 40.239c11.202 0.433 21.876 3.058 32.716 5.423zM394.583 564.786c-10.146 1.529-20.847 1.442-30.048 6.404l-1.001 38.364 31.048-4.5c-1.473-7.211-2.168-13.471-1.668-20.97 0.139-2.192 1.612-6.865 1.723-8.942 0.167-3.433-0.222-6.923-0.056-10.355zM744.37 567.18c1.084-3.75 0.667-6.115 0.973-9.865-10.451-9.923-23.46-17.105-36.858-22.038 2.085 14.105-0.862 28.124 1.807 42.258 2.335 3.952 8.005 3.288 11.174 4.673 3.336 1.442 8.589 5.74 12.036 6.375 1.056 0.202 6.226-1.24 6.699-1.586 0.361-0.26 2.613-7.471 2.724-8.394 0.723-5.048 0.028-6.404 1.445-11.423zM523.613 550.825c-51.729-25.441-129.725-30.172-181.842-5.481-5.42 2.567-5.893 2.135-10.952 3.836-3.808 1.269-14.287 8.596-18.568 11.192-26.462 16.096-49.977 36.229-70.269 60.373-3.336 3.981-15.816 20.278-16.233 24.374-0.139 1.269 0.111 2.567 0.889 3.577 3.53 2.913 7.171-0.173 11.535-0.548 5.476-0.49 13.12 0.519 18.206-1.702 2.14-0.923 11.674-12.49 14.009-15.23 10.729-12.692 21.681-30.432 35.134-39.547 5.448-3.692 11.869-6.029 17.567-9.375 1.028-0.606 2.641-0.26 3.197-0.663 0.806-0.577 0.528-3.202 1.223-4.096 0.278-0.346 6.754-3.49 7.839-3.981 11.313-5.106 36.58-13.73 48.476-14.999 14.593-1.586 40.999-2.769 55.203-0.981 1.974 0.231 1.14 2.336 3.391 2.769 3.947 0.75 9.756-0.663 13.87-0.058 33.8 4.904 59.4 14.624 84.611 38.825 11.007 10.586 21.848 22.788 30.965 35.422 6.477 8.942 12.758 17.826 18.846 26.999 14.593 21.951 26.823 42.056 37.997 66.142 0.667 1.385 3.336 10.067 3.808 10.298l29.714 6.606c1.779-0.635 2.113-5.884 1.584-7.586-0.389-1.211-1.529-1.211-1.807-1.99-14.426-41.191-34.912-76.382-60.123-111.457-23.71-32.941-41.027-52.873-77.246-71.363-0.612-0.317-0.778-1.211-1.028-1.356zM588.6 524.519c-2.474 1.5-16.511 2.221-17.15 2.827-0.25 0.231 0.222 1.673-0.639 2.596-5.226 5.654-9.84 1.067-10.146 12.923-0.139 4.788-0.473 21.288 3.836 23.249 3.919 1.817 18.401 0.865 22.265-2.365zM661.927 521.836c-9.062-2.711-21.236-3.923-30.659-2.711-2.029 0.26-3.447 1.673-5.448 1.933 0 10.759-0.528 21.836 0.778 32.537 0.417 3.519 0.639 10.586 3.475 12.49 3.447 2.279 28.435 2.51 30.576-1.269zM263.83 501.587c3.252-2.971 4.698-3.058 1.39-7.932-5.921-8.74-23.655-9.346-32.521-6.029-10.368 3.865-14.676 14.134-1.306 17.855 8.116 2.279 26.323 1.702 32.438-3.894zM222.608 483.905c5.615-7.182 2.724-17.192-3.641-22.788-12.953-11.307-46.531-10.528-60.123 0-7.032 5.452-4.948 17.682 2.113 22.615 9.59 6.721 38.164 9.259 49.561 7.759 1.501-0.202 1.112-1.471 1.918-1.788 4.086-1.615 7.171-1.904 10.173-5.798zM247.792 450.502c-11.619 1.298-27.907 11.451-13.175 22.124 4.308 3.115 10.229 2.856 15.427 3.663 7.255 1.154 16.622 3.058 24.183 1.644 0.806-0.144 12.842-5.307 13.426-5.769 0.778-0.606 2.807-4.096 3.002-4.933 0.083-0.519-3.252-8.596-3.836-9.403-6.532-9.144-29.019-8.423-39.026-7.327zM789.566 527.201c4.475 0.692 6.754 6.375 11.647 6.317 1.946 0 3.002-1.298 4.503-1.644 27.407-6.086 65.488-14.336 89.003-31.124 20.263-14.48 5.976-23.365-9.729-30.951-10.396-5.019-19.902-6.663-30.381-8.74-21.542-4.298-42.445-6.49-63.709-9.98-10.257-1.702-20.903-4.5-31.132-6.173-70.825-11.451-143.15-17.336-215.587-20.567-12.592-0.577-24.516-3.086-37.024-3.663-9.951-0.462-19.874 0.519-29.77 0.952-0.083 1.327 3.085 1.586 3.975 1.644 30.465 2.192 60.762 5.913 91.31 9.057 10.84 1.125 21.987 2.336 32.744 3.634 9.617 1.154 22.209-0.519 31.966 0.808 3.169 0.462 5.365 3.231 8.561 3.663 10.729 1.442 24.377 0.837 35.329 1.731 23.293 1.933 48.282 4.442 71.575 8.134 27.018 4.298 55.842 12.519 82.026 15.115 13.592 1.356 27.463 3.086 40.721 6.981 6.782 1.99 10.34 4.356 15.649 7.875 6.365 4.211 3.891 10.846-1.334 14.596-4.058 2.885-9.84 4.5-14.287 6.49-25.156 11.134-52.896 17.394-79.108 24.576zM450.426 450.935c0.639-1.096 0.361-10.615-0.167-12.375-0.361-1.183-5.587-6.721-6.615-7.442-5.504-3.923-18.707-6.807-25.156-8.827-3.752-1.154-14.232-7.009-17.428-3.404l-10.785 28.268c-0.028 3.173 3.891 1.76 5.559 2.25 10.535 3 20.208 2.596 31.076 3.519 6.338 0.548 12.814 1.211 19.013 2.74l1.306-0.433c0.056-2.452 2.835-3.692 3.197-4.298zM326.733 415.051c-0.612-0.663-0.167-2.625-1.668-3.173-5.42-2.048-7.561 2.077-11.035 3.548-7.005 2.942-9.173 4.817-15.399 8.192-3.169 1.731-4.725-0.317-7.894 4.327-2.724 3.981-4.058 11.509 0.917 14.134 3.864 2.019 9.284 0.606 13.676 1.010 13.565 1.269 26.323 2.769 40.11 1.788l-10.813-22.384c-2.335-2.394-5.67-5.106-7.894-7.442zM445.367 421.513c2.502-7.673-0.334-22.499-6.365-27.634-1.584-1.356-6.643-4.269-8.617-4.5-3.864-0.49-20.069-0.808-22.070 2.192-0.445 0.663-3.141 15.374-3.030 16.211 0.389 2.827 12.341 6.779 15.343 7.817 5.031 1.788 10.507 2.625 15.566 4.298 0.778 0.231 0.639 1.529 1.251 1.673 0.973 0.26 7.616 0.202 7.922-0.058zM396.835 393.331c-6.532-5.74-12.008-3.721-19.958-3.894-7.811-0.202-16.205-0.894-24.127-0.058-1.612 0.173-6.477 3.058-8.089 4.125-12.897 8.625-11.452 14.048-4.753 27.114 4.169 8.077 10.59 15.663 14.287 24.114 8.089-0.923 17.79 4.558 25.517 4.384 1.056 0 1.279-0.288 1.946-1.067 1.807-1.99 6.977-13.961 8.394-17.278 2.835-6.779 10.924-27.374 9.729-33.806-0.222-1.067-2.085-2.885-2.946-3.634zM286.79 390.274v24.634c0 5.711 15.816-1.125 18.318-2.481 7.283-3.952 14.621-9.086 21.681-13.73 3.697-2.423 9.367-3.144 9.201-7.99-0.056-1.875-4.142-2.048-5.726-2.221-8.867-0.865-27.351-0.923-36.163 0-2.613 0.288-4.698 1.788-7.31 1.788zM175.299 434.782c1.668-2.74 2.196-13.99 2.946-18.028 1.557-8.105 4.225-14.019 3.363-23.365-0.445-5.163-1.557-6.259-6.449-6.721-7.783-0.75-25.239-0.894-32.827 0.029-1.251 0.144-3.030 0.404-3.891 1.327-3.085 3.259 2.613 18.259 4.531 22.182 1.807 3.721 10.34 17.999 12.758 20.768 3.725 4.269 5.559 3.288 10.479 4.327 2.196 0.462 6.671 3.461 9.089-0.519zM476.86 294.018c3.169-2.192 5.226-3.606 4.392-8.423-9.312 8.365-24.044 7.24-35.607 11.336-2.891 1.038-5.392 3.577-8.728 3.952l0.806 6.173c7.060-3.75 14.454-6.692 22.209-8.711 5.809-1.529 11.897-0.837 16.928-4.327zM419.6 162.974c-3.641 0.519-4.559 3.606-8.45 5.106-4.698 1.788-10.924 2.452-15.705 4.298l-6.032 4.471c4.92 4.875 4.003 2.192 7.561 0.692 8.95-3.808 19.457-3.375 22.626-14.567zM335.072 174.599l23.738-24.201 18.095 11.682c3.919 3.346 2.585 10.24 7.31 11.625 0.5-8.048-3.53-14.769 1.779-21.893 9.534-12.836 25.183-12 34.022-21.057 1.001-1.010 3.725-5.596 0.889-4.471-1.862 0.75-5.226 4.24-8.339 5.682-5.448 2.51-10.757 2.596-16.066 4.788-3.419 1.413-9.645 7.759-7.922 0 0.167-0.75 1.557-0.692 1.974-1.702 1.001-2.567 0.862-6.461 1.89-9.634 1.584-4.731 7.060-15.403 10.813-18.317 4.447-3.433 8.061-3.144 11.73-4.759 8.172-3.692 17.762-8.336 20.152-18.115 2.14-0.346 2.335 3.173 3.947 5.279 11.591 15.403 33.494 19.067 41.305 36.777 2.14 4.846 3.113 9.98 3.891 15.201-1.056 1.096-6.282-3.606-7.588-4.211-9.395-4.413-20.792-6.029-27.768-14.567-0.334 4.5 1.918 7.673 5.253 10.211 5.281 4.038 13.954 5.538 20.347 9.317 1.028 0.606 9.645 5.567 8.033 7.298-0.834-0.029-1.751 0.115-2.474 0.548-12.48 7.327-28.269 14.048-36.719 26.393-3.502 5.106-9.062 17.682-9.895 23.711-0.612 4.327 1.279 12.634 0.639 14.942-0.417 1.471-4.086 5.307-5.198 8.077-3.975 10.153-4.698 23.163-3.030 33.922 0.612 4.096 0.417 5.365 0.778 8.971 0.306 3.173 2.668 7.125 2.863 10.557 2.724-13.009 12.953-22.845 24.739-27.143 4.725-1.702 10.173-2.077 14.649-3.606 1.723-0.577 14.871-6.779 15.427-7.471 0.278-0.346 3.836-7.413 4.058-8.077 0.445-1.269 0.639-2.423-1.084-2.048-1.584 1.096-2.14 3.259-3.475 4.471-12.731 11.509-29.77 8.625-43.835 18.057-1.084 0.721-8.478 7.932-9.201 7.009 0.417-3.231-0.945-6.231-0.945-9.403 0.056-6.577 1.501-17.451 4.364-23.307 6.893-14.134 34.273-19.903 46.642-26.768 4.698-2.625 12.647-8.855 12.48-14.798-1.529 1.211-2.807 3.375-4.336 4.442-11.452 8.019-22.181 9.49-34.050 14.798-6.004 2.683-11.73 7.355-17.678 10.269 0.945-15.144 4.753-28.614 15.927-38.941 6.615-6.086 12.675-7.384 19.902-11.567 13.203-7.644 26.684-15.692 32.744-30.922l9.895 17.913c8.339 9.173 20.792 13.153 30.548 20.192 1.779 1.298 9.173 9.634 10.173 11.365 0.306 0.577 3.308 12.115 3.336 12.75 0.083 1.933 0.306 3.317 0.417 5.307 0.334 6.346-1.167 12.259 0.806 18.374l-2.224-0.808-1.64 1.702c-2.835-2.769-6.199-5.048-9.506-7.154-5.17-3.288-11.424-6.144-16.511-9.259-0.417-0.26-9.145-8.365-7.199-3.721 0.334 0.808 7.144 8.654 8.172 9.432 16.455 12.346 37.914 14.221 40.916 39.864 0.695 5.942-1.974 9.432-1.751 12.461 0.139 2.221 2.446 6.317 1.807 9.403l-50.033-30.864c-0.056 4.558 2.752 3.75 4.086 5.163 10.451 11.192 21.181 14.855 32.966 23.538 3.113 2.279 4.531 4.615 6.282 6.432 0.5 0.49 1.89-0.087 2.474 0.75 0.75 1.038 1.862 5.884 2.585 7.673 0.278 0.663 1.306 0.721 1.557 1.442 1.362 3.865 1.668 8.682 2.696 12.721l-24.461 7.961c-5.198-7.009-12.897-10.355-20.458-13.73-2.696-1.211-3.058-3.952-6.838-2.279-0.278 1.673 1.612 0.404 2.39 1.067 0.25 0.173 0.612 2.481 1.862 3.894 3.475 3.952 11.257 7.211 14.732 10.673 0.834 0.808 2.418 1.846 1.306 3.173l-54.786 20.999c-8.978 4.529-18.401 8.192-27.324 12.807-7.449 3.865-13.954 8.798-21.709 11.913l0.75 7.067c1.974 1.817 23.71-11.567 27.24-13.326 67.906-33.72 136.090-52.931 211.195-60.055 44.891-4.269 90.643-4.298 134.95 4.471v40.268c-7.561-0.894-15.26-0.404-22.821-0.923-44.613-2.971-93.089-9-136.924 2.942-1.028 0.288-1.584 1.673-2.78 1.558l-4.336-8.942c-3.197 2.654 3.002 7.904-1.279 9.836-2.085-6.173-9.617-7.702-13.37-12.519-1.723 1.096-1.056 2.192 0.056 3.49 0.667 0.779 10.813 8.221 9.84 9.029l-16.372-5.365c-0.473 2.538 0.639 1.442 1.89 2.019 2.335 1.096 5.615 1.529 6.727 4.24l-15.010 0.952c-54.286 11.884-111.991 24.72-162.024 51.142-2.224 1.183-6.643 2.308-9.228 3.404-0.862 3.115 4.392 1.702 5.893 1.183 10.062-3.433 21.848-12.605 31.159-15.98 16.344-5.913 35.968-10.442 52.785-15.028 40.805-11.134 80.025-19.528 121.803-26.653 50.116-8.538 94.229-6.086 144.929-2.596 2.891 0.202 5.921 1.558 9.089 0.894v8.48l72.409 76.526c-1.696 0.231-2.196-1.385-3.891-1.76-16.622-3.519-34.884 0.26-50.839-5.481-7.032-2.538-25.156-0.49-33.717-1.644-1.696-0.202-0.75-1.788-2.502-1.904-2.585-0.144-9.729 2.019-10.285 1.846-13.259-4.009-39.22-1.644-55.259-2.048-39.054-0.952-77.996-1.154-117.272-2.452-50.589-1.702-100.65-2.221-151.1-1.211-4.753 0.087-14.788-3.692-11.396 4.702 2.752 0.981 5.726-0.779 8.144-0.808 27.741-0.288 54.786 0.029 82.721 0.952 58.289 1.961 118.662 2.452 175.922 4.471 8.923 0.317 21.125-1.269 29.408-0.087 26.156 3.808 53.647 2.538 80.136 4.558 17.512 1.327 35.44 3.808 52.813 6.923 9.756 1.76 16.122-0.404 22.654 9.605-4.253-0.202-8.645-1.096-12.814-1.904-28.519-5.538-57.788-10.442-86.835-11.019-3.363-0.058-1.584-0.635-6.032-0.087-4.67 0.577-5.281-1.327-8.533-1.788-17.929-2.625-40.388 1.442-58.761 0.029-8.617-0.663-15.26-2.942-24.794-3-38.72-0.202-76.829-0.75-115.66-2.394-19.346-0.837-43.334-3.548-62.18-1.817-1.835 0.173-3.197 1.846-4.086 1.673-15.371-2.567-36.385-2.538-52.702-3.029-5.309-0.173-11.396 1.183-16.9 0.519-0.556 0.519 0.973 3.433 1.779 3.981 3.53 2.452 27.907 1.385 34.050 1.442 8.867 0.058 17.734 0.606 26.657 0.808 19.874 0.404 40.944-1.269 60.429 0.144 1.835 0.115 5.114 3 7.783 3.404 11.118 1.731 26.74 0.75 38.748 1.673 47.365 3.663 95.146 8.827 142.288 14.509 22.32 2.683 43.723 7.932 65.599 12.49 24.516 5.077 51.868 6.461 72.743 22.961 8.033 6.346 14.037 13.903 5.643 23.566-4.086 4.673-12.119 9.23-17.234 12.548-21.931 14.134-49.422 22.066-73.465 29.509-1.779 0.548-9.617 0.75-10.59 1.846l15.232 14.624c3.697 6.606 10.424 11.913 14.927 18.057 6.477 8.769 10.952 19.672 17.261 28.614l45.725-12.086c-5.504 6.663-10.229 12.288-18.29 15.461-3.113 1.24-6.449 1.615-9.478 2.711-3.641 1.298-7.31 4.24-11.897 4.211 1.223 3.865 4.503 5.25 4.392 9.75l4.225 0.519-9.062 9.403-29.381-51.835c-30.437-37.412-62.93-66.459-108.016-82.987-13.509-4.961-29.269-10.038-43.501-12.144-48.393-7.211-79.469-4.731-124.971 14.624-16.872 7.154-30.075 18.461-45.475 26.364-2.668 1.356-5.921 1.904-8.7 3.086-0.667 3.115 2.696 1.298 4.586 1.788 0.667 0.173 0.528 1.586 1.195 1.76 2.168 0.548 5.198-0.49 7.422 0.029 0.695 0.144 0.612 1.558 1.668 2.019 1.862 0.837 12.147 4.817 13.148 4.788 2.363-0.115 11.925-6.807 14.927-8.365 12.369-6.317 21.625-10.528 35.19-13.586 45.169-10.182 83.861-9.375 128.14 7.355 23.099 8.74 50.811 27.114 69.24 43.585 5.448 4.904 5.448 9.144 9.951 14.74 7.394 9.259 15.677 17.942 23.655 26.48 4.698 5.019 4.030 8.654 6.338 13.99 4.142 9.519 9.812 17.682 13.453 27.201 1.279 3.404 4.086 7.99 2.307 11.134-2.835 4.99-13.314 12.028-16.872 17.422l-0.473 20.538c-10.201 2.279-28.213 12.028-24.766 25.326 2.641 10.153 17.095 8.538 24.822 11.019l-0.417 69.344c-3.78 20.768-20.931 37.499-41.388 39.345l-117.133 0.173-91.561 94.727c-0.723 0.837-1.445 0.721-2.39 0.692-2.307-0.115-14.148-5.106-17.234-6.404-32.994-13.874-97.231-41.825-119.662-69.113-29.436-35.797-14.371-75.141 14.065-104.794 18.123-18.894 39.137-28.557 59.011-44.191 2.363-1.846 6.56-2.798 7.95-6.231-3.752 0.115-4.086-4.183-5.726-5.25-2.418-1.586-6.949-0.346-9.617 0.49-48.060 14.769-102.957 50.075-116.382 102.977-1.028 4.067-1.751 26.249-2.807 27.057-5.226-1.529-4.392-7.298-3.947-11.682 0.612-5.856-0.417-3.577-0.806-7.529-1.529-15.259 16.844-48.864 26.74-60.459 22.543-26.364 48.032-33.749 77.107-48.864 2.14-1.125 4.086-3.779 5.281-4.327 2.307-1.067 5.615-0.433 8.367-2.077 0.973-0.548 1.473 0.087 1.112-1.961-3.78-0.404-13.064-5.481-15.955-5.481-1.723 0-4.114 1.933-6.421 2.365-15.121 2.971-31.771 6.404-45.363 13.788-7.866 4.24-15.399 12.057-22.904 16.471-2.474 1.442-5.448 3.894-8.033 2.394-2.14-1.644 3.169-6.029 4.475-7.154 22.015-18.951 40.471-20.653 65.905-28.932 0.917-0.317 2.613-0.231 2.418-1.529-5.17-1.125-10.146-3-15.316-4.269-14.732-3.606-48.254-12.548-61.93-11.019-29.186 3.288-63.236 14.076-90.893 24.72-17.539 6.721-38.887 16.586-54.647 27.403-2.919 2.019-6.949 6.663-9.423 8.192-3.113 1.933-6.949 1.298-9.423 2.452-0.584 0.26-9.784 7.038-10.173 7.557-0.695 0.894-1.418 3.548-2.585 5.596-3.669 6.432-9.59 12.98-13.203 19.24-4.308 7.557-7.394 16.153-11.396 23.913l-2.14-0.404c2.724-10.355 5.726-20.567 10.424-30.172 9.117-18.663 14.732-21.893 30.882-32.595 7.060-4.673 14.649-10.788 21.903-14.855 17.929-10.067 37.441-17.192 55.342-26.682l69.435-19.211c-1.557-1.933-4.281-1.442-6.449-1.327-15.733 0.808-38.664 6.865-54.48 10.586-32.438 7.644-66.572 16.903-95.619 34.124-12.981 7.702-25.267 17.913-37.469 26.855v-60.402l-117.328-121.697c-15.955-18.259-20.986-43.181-14.398-66.892 7.060-25.297 31.298-41.883 47.809-60.488 6.615 0.837 15.121-0.231 21.431 0.692 2.085 0.317 3.197 1.817 5.087 1.875 6.365 0.202 8.978 0.087 15.621 0.808 6.115 0.663 13.12 0.606 19.346 0.952l-12.23-24.461c-1.668-2.885-3.308-5.682-7.116-5.077-1.167 0.173-2.057 1.385-2.863 1.558-4.92 0.981-10.285 3.115-14.482 3.721-1.584 0.26-4.142 0.462-5.559-0.346 2.168-1.76 4.253-5.336 6.643-6.519 5.253-2.625 19.819-0.837 12.453-12.49l9.951-10.817c7.422-0.462 14.871-0.029 22.293-0.115 1.612-0.029 3.085-0.837 4.364-0.865 4.447-0.058 10.229 2.077 15.010 0.375 3.141-1.558 5.504-17.913 7.088-22.182 3.085-8.423 9.423-14.826 16.789-19.269 19.958-12.057 48.254-14.076 68.518-1.644 6.477 3.981 13.815 14.278 16.233 21.634 1.14 3.433 0.417 6.548 1.084 9.634 0.695 3.231 3.669 6.259 2.502 10.788l1.14 1.24 140.259-2.135-23.377-117.169-236.295-1.269 0.473-10.759c5.448 2.221 11.285 0.144 16.455 0.087 68.99-0.49 138.48 1.385 207.776-0.029 3.28-0.058 15.121 1.99 16.316-0.894-0.028-10.875-9.034-10.875-17.178-11.711l-223.842 0.029 0.139-6.577 1.279-1.356c13.62-1.471 29.77 1.558 43.056-0.087 1.251-0.144 2.224-0.087 2.974-1.385v-13.413c0-1.096 2.502-3.836 3.919-4.067 6.143-0.894 9.034 6 9.062 11.278 0.028 3.461-2.502 3.865-0.056 7.557h34.495c-3.336-12.663 0.389-23.97 13.815-15.23v15.23h30.187c-2.557-23.999 17.234-23.826 14.649 0h29.325c0.139-6.259-1.696-15.778 5.587-17.999 5.976 0 7.005 13.355 6.477 17.999 0.667 0.692 15.983-0.375 18.568-0.029 2.251 0.288 4.225 2.019 5.948 1.817 1.779-0.202 4.42-3.086 7.394-1.788-2.001-16.269-3.224-30.028-15.983-41.133-10.368-9.086-17.4-8.971-29.964-10.961-0.889-0.144-1.751-1.615-1.918-1.615z" fill="rgb(88, 39, 26)"></path>
    <path style="fill: rgb(69, 28, 21);" d="M742.123 256.046c-14.621-15.23-36.913-17.711-52.59-31.326-0.389 1.673 0.889 2.135 1.696 3.144 2.891 3.548 8.116 8.394 11.813 11.019 11.925 8.48 27.657 11.307 36.357 24.922 2.863 4.471 3.336 9.346 5.309 13.701-22.57-2.423-44.418-0.087-66.85 1.788-5.309 0.462-10.451 1.24-15.566 1.731-10.173 0.981-20.458 1.125-30.548 2.74 3.224-3.375 7.894-7.125 7.338-12.49-6.254 6-13.592 11.798-21.403 15.374-9.673 4.442-14.398 4.009-24.266 5.25-3.752 0.462-8.978 3.086-12.981 3.548-1.946-10.644-3.224-21.951 0.862-32.249 0.667-1.731 10.757-18.547 11.563-19.297 11.925-11.307 34.717-6.577 49.144-21.518 0.889-0.923 7.31-7.904 2.696-7.5-3.141 6.865-14.593 11.336-21.403 13.153-4.809 1.298-9.729 1.183-14.204 2.279-5.392 1.327-11.452 4.875-17.011 6.029-1.167-1.269 1.14-31.008 2.113-34.931 2.057-8.279 11.48-15.432 18.54-19.24 7.561-4.067 15.788-5.682 23.126-8.394 3.558-1.298 7.338-1.673 10.257-4.442l10.229 8.827 29.603 0.173c0.5 1.096 0.667 2.394 1.445 3.375 11.452 14.567 28.63 17.682 43.084 27.778 4.92 3.461 11.647 15.98 11.647 21.951z" fill="rgb(88, 39, 26)"></path>
    <path style="fill: rgb(69, 28, 21);" d="M605 152.232l-8.617-6.259c-0.389 1.904 1.473 2.308 2.14 3.634 0.528 1.067 0.222 2.74 0.612 3.346 0.667 1.010 5.17 0.519 4.892 3.115-4.197 5.307-2.919 17.451-5.531 22.095-0.695 1.24-2.168 1.413-2.668 2.106-4.003 5.538-7.977 11.855-8.116 18.951-0.334 14.307-1.028 29.076-1.668 43.643l-7.755 10.5c-0.556-12.086-4.086-25.441-13.87-32.739 4.531-8.913 2.085-21.345 0.056-30.807l2.446-0.115 1.862-8.827-6.032 4.471c-3.002-10.759-12.258-20.336-22.404-24.172-0.278-2.308 0-1.413 1.251-1.817 9.201-2.856 25.044-2.74 26.323-16.067-4.503 4.702-10.813 6.923-16.844 8.884-5.142 1.673-10.979 0.779-14.732 5.365-4.92-4.009-11.118-4.183-13.981-10.961l3.864-12.259c1.251-1.558 2.696-3.173 4.336-4.298 6.727-4.702 15.316-7.067 22.876-9.375 2.502-0.779 7.7-1.413 9.506-2.423 1.39-0.779 8.116-9.98 7.144-12.519-3.919 4.413-7.811 8.307-13.481 10.182-5.17 1.702-10.952 1.211-15.649 2.538-1.306 0.375-9.756 5.625-10.118 5.163 0.556-21.028 14.649-34.441 33.077-40.095l51.423 53.075c-4.197 4.269-9.201 9.605-10.34 15.663z" fill="rgb(88, 39, 26)"></path>
    <path style="fill: rgb(69, 28, 21);" d="M814.567 285.578c-2.835 1.067-4.892-1.125-6.727-1.529-6.977-1.471-14.176-1.24-21.208-2.163-12.203-1.586-24.377-4.702-36.802-3.894l-3.391-14.307c9.395-15.547 29.381-13.932 43.696-20.913 4.197-2.048 5.948-6.057 8.895-9.548l-15.343 7.327c-5.031 0.952-10.257 1.586-15.204 3.029-3.058 0.865-20.18 7.875-21.181 7.096 4.475-8.48 2.807-17.942 6.754-26.566 0.806-1.76 4.586-7.846 5.837-9.144 1.418-1.529 12.731-8.769 14.843-9.663 5.726-2.452 22.654-5.654 26.101-8.74 0.5-0.462 0.723-1.529 0.806-2.25h1.251c1.362 0.462 6.115 8.019 6.977 9.778 0.889 1.933 4.698 12.548 4.698 13.932z" fill="rgb(88, 39, 26)"></path>
    <path style="fill: rgb(69, 28, 21);" d="M380.779 862.811c0.139 1.846 1.001 3.144 2.14 4.5 12.842 15.144 35.246 32.22 51.923 42.777 33.967 21.461 72.103 34.701 108.071 51.604l-6.588 6.577c-2.251-1.038-4.725-1.442-7.032-2.279-19.291-6.894-44.168-18.663-62.847-27.835-25.044-12.317-49.783-27.807-70.296-46.758-7.171-6.606-18.484-16.297-17.095-27.259 0.167-1.211 0.473-2.625 1.723-1.327z" fill="rgb(88, 39, 26)"></path>
    <path style="fill: rgb(69, 28, 21);" d="M752.481 212.192c1.112-9.75 4.197-19.932 9.645-28.037 4.142-6.173 4.725-6.577 12.23-5.856 6.615 0.663 16.372 4.586 21.514 9 2.613 2.221 6.449 4.529 1.473 6.577-9.951 4.009-22.209 4.125-31.91 9.836z" fill="rgb(88, 39, 26)"></path>
    <path style="fill: rgb(69, 28, 21);" d="M642.952 166.548l-37.942 10.73c-0.556-5.192 2.057-8.711 3.252-13.182 0.389-1.558 0-3.433 0.417-4.933 2.168-7.788 5.643-11.653 10.59-17.682 1.084-0.26 1.501 0.837 2.14 1.356 3.475 2.74 18.401 18.028 20.68 21.461 0.528 0.779 1.223 0.894 0.862 2.25z" fill="rgb(88, 39, 26)"></path>
    <path style="fill: rgb(69, 28, 21);" d="M314.376 706.199c0.528 2.019-1.835 2.596-3.169 3.404-8.367 4.99-14.732 7.788-22.765 13.99-5.531 4.298-14.287 11.365-19.819 17.019-9.256 9.519-14.148 21.143-18.206 33.893-0.5 1.615-0.695 3.375-0.723 5.077l-4.169-1.038c-1.807-21.172 12.897-40.873 28.408-53.017 12.258-9.605 25.35-15.98 40.443-19.326z" fill="rgb(88, 39, 26)"></path>
    <path style="fill: rgb(69, 28, 21);" d="M758.512 178.187c0.528 0.404-6.921 9.865-7.533 11.423-0.612 1.529-1.418 5.856-1.89 7.904-0.584 2.452-0.778 5.884-1.195 7.817-1.028 4.846-3.308 8.538-1.89 14.019-3.53-0.952-3.141-5.163-5.142-8.077-2.001-2.942-6.338-6.086-9.034-8.48 3.808-6.75 0.889-16.961 0.806-24.605z" fill="rgb(88, 39, 26)"></path>
    <path style="fill: rgb(69, 28, 21);" d="M724.877 178.187c0.5 0.433 0.584 6.259 0.889 7.413 1.251 4.327 1.473 4.269 1.696 10.038 0.139 3.577 3.252 7.875-3.197 5.106-2.557-1.067-5.42-4.096-7.727-5.423-9.478-5.452-20.875-9.519-28.741-17.134z" fill="rgb(88, 39, 26)"></path>
    <path style="fill: rgb(69, 28, 21);" d="M316.978 844.912h-7.755c-0.139-6.432-1.334-12.605-0.75-19.124 0.389-4.731 1.529-13.846 7.7-11.826 2.001 1.5-0.056 8.077-0.111 10.759-0.056 6.779 1.418 13.384 0.917 20.192z" fill="rgb(88, 39, 26)"></path>
    <path style="fill: rgb(69, 28, 21);" d="M378.197 158.501c-0.612 0.837-14.148-11.625-16.372-12.086l12.508-12.951c1.334-0.577 3.864 6.259 3.864 6.692z" fill="rgb(88, 39, 26)"></path>
  </g>
</svg>
