<svg width="60" height="60" viewBox="0 0 1024 1024" xmlns="http://www.w3.org/2000/svg">
  <path style="fill: rgb(247, 188, 63);" d="M511.955 12.403c-24.71 0-49.433 9.38-68.216 28.163l-110.639 110.639h-105.188c-42.237 0-76.787 34.55-76.787 76.787v105.148l-110.639 110.639c-37.537 37.569-37.537 98.902 0 136.471l110.639 110.639v105.109c0 42.237 34.55 76.787 76.787 76.787h105.188l110.639 110.678c18.785 18.769 43.502 28.163 68.216 28.163s49.431-9.395 68.216-28.163l110.639-110.678h105.188c42.237 0 76.787-34.55 76.787-76.787v-105.109l110.639-110.639c37.567-37.567 37.567-98.905 0-136.471l-110.639-110.639v-105.148c0-42.237-34.55-76.787-76.787-76.787h-105.188l-110.639-110.639c-18.783-18.783-43.506-28.163-68.216-28.163z" fill="rgb(251, 200, 48)"></path>
  <path style="fill: rgb(69, 28, 21);" d="M700.974 585.283c4.213-6.609 6.74-12.185 10.692-16.466 6.828-7.487 15.983-10.824 26.082-11.022 10.078-0.187 20.155-0.249 30.188 0.022 11.79 0.311 22.46 3.734 31 12.426 5.29 5.421 7.267 12.405 9.068 19.298 6.916 26.609 8.892 53.811 7.882 81.123-0.635 17.257-4.873 33.613-15.149 48.081-4.126 5.794-10.011 7.377-16.224 8.496-5.159 0.921-10.473 1.207-15.72 1.425-1.008 0.044-2.527-1.382-2.987-2.458-2.633-6.345-4.761-12.932-7.575-19.189-2.589-5.881-5.072-12.075-9.001-17.037-4.17-5.315-9.397-10.407-15.259-13.568-4.543-2.458-10.735-2.197-16.203-2.39-2.857-0.124-4.107-0.436-4.916-3.448-2.483-9.331-7.684-16.224-17.542-19.144-14.841-4.412-29.046 3.734-31.834 18.749-0.498 2.57-1.649 3.049-3.84 3.006-4.151-0.062-8.299-0.187-12.426 0.022-2.527 0.124-3.578-0.765-4.307-3.161-2.763-9.462-8.979-16.246-18.574-18.068-15.939-3.006-26.982 1.319-30.825 17.651-0.765 3.23-2.041 3.666-4.699 3.578-4.151-0.124-8.299 0.187-12.426-0.187-1.207-0.062-3.186-1.693-3.317-2.788-1.164-9.199-2.458-18.442-2.813-27.663-0.436-12.844-4.524-24.326-12.119-34.425-2.9-3.865-7.311-6.63-11.68-10.406 0.747-0.747 1.668-2.172 2.987-2.857 8.387-4.543 12.097-12.075 13.546-20.989 0.436-2.657 1.338-3.778 4.151-3.796 6.323-0.022 12.668-0.747 18.969-0.56 5.072 0.187 9.177 2.545 13.063 6.257 9.814 9.265 15.917 21.12 23.865 31.681 5.072 6.806 11.131 10.604 20.901 9.463 12.69-1.494 25.71-0.436 38.575-0.498 11.109-0.022 22.218 0.062 33.283-0.062 1.338-0.044 2.657-1.095 3.952-1.693-0.703-1.139-1.294-2.44-2.216-3.404-3.292-3.404-7.355-3.995-11.987-3.995-16.576 0-33.13-0.124-49.662-0.99-3.952-0.187-8.167-3.006-11.482-5.576-3.317-2.527-5.775-6.192-8.387-9.507-2.352-2.987-1.363-5.315 2.415-5.794 2.066-0.249 4.126-0.124 6.211-0.124h56.336zM746.483 753.58c-0.311 5.794-3.865 11.966-7.399 16.927-5.029 7.026-11.307 13.173-17.256 19.518-1.077 1.164-3.031 2.066-4.612 2.066-25.424 0.124-50.87 0.062-76.732 0.062-1.338-5.29-2.701-10.516-3.995-15.719-4.724-19.233-13.766-36.533-24.019-53.196-5.091-8.255-10.801-16.225-19.452-21.45-4.238-2.589-8.342-5.508-12.426-8.342-1.276-0.878-2.371-1.998-4.394-3.796 5.819-0.436 10.561-1.189 15.281-1.189 36.379-0.062 72.802-0.249 109.181 0.124 7.487 0.062 15.369 1.164 22.372 3.753 7.619 2.813 12.646 9.836 15.522 17.323 5.489 14.007 8.782 28.849 7.926 43.909zM609.942 839.479c-0.022 1.979-1.294 4.5-2.788 5.794-11.307 9.88-24.787 13.963-39.606 14.468-10.45 0.373-20.901 0.878-31.307 1.799-8.716 0.815-13.7-3.317-16.752-10.912-1.338-3.249-2.987-6.411-4.456-9.594-4.437-9.463-12.251-13.019-22.262-13.37-15.259-0.498-30.693-0.965-45.161-6.345-11.987-4.481-23.535-10.231-35.127-15.785-8.716-4.126-12.426-11.153-11.109-20.901 1.008-7.575 0.373-15.588 2.589-22.745 2.701-8.496 7.224-16.575 11.834-24.348 4.195-6.981 9.463-13.326 14.49-19.781 0.815-1.077 2.745-1.276 4.126-1.886 0.436 1.338 0.79 2.701 1.319 3.977 1.382 3.317 2.11 7.224 4.394 9.704 10.867 11.834 24.019 19.672 40.44 20.945 12.032 0.965 24.151 2.9 36.116 2.303 13.502-0.622 27.268-2.216 39.102-10.165 9.023-6.062 15.369-13.876 17.147-24.985 0.311-1.911 1.693-3.622 2.72-5.732 14.425 9.792 22.57 22.921 26.368 38.728 2.962 12.405 5.271 24.941 7.728 37.477 0.498 2.589 0.373 5.315 0.373 7.948 0 14.468 0.062 28.936-0.187 43.405zM609.166 872.278c-0.498 18.091-11.307 27.62-27.114 33.723-14.117 5.402-28.717 8.101-43.602 9.638-11.965 1.207-23.931 2.944-35.94 3.336-7.245 0.249-14.534-1.469-21.801-2.415-6.564-0.834-13.172-1.363-19.606-2.745-24.216-5.228-42.285-19.364-54.843-40.265-3.137-5.271-4.35-12.251-4.655-18.53-0.678-13.963-0.249-28.015-0.249-42.79 17.52 11.768 35.61 19.891 55.37 23.777 8.299 1.649 16.839 2.328 25.292 3.249 4.829 0.498 9.704 0.635 14.578 0.965 3.23 0.187 4.674 2.458 6.037 5.072 2.987 5.881 6.018 11.768 9.484 17.366 4.213 6.85 10.385 10.363 18.684 10.561 19.057 0.436 38.091 0.062 56.731-3.952 7.465-1.624 14.293-6.149 21.626-9.397 0 3.603 0.062 8.014-0.022 12.405zM392.44 751.743c-0.436 0.946-1.711 2.153-2.657 2.153-17.849 0.124-35.698 0.062-53.569 0.062-0.187-0.436-0.436-0.853-0.635-1.294 9.353-8.123 18.727-16.269 28.080-24.414 11.043-9.572 22.064-19.166 33.108-28.717 5.838-5.029 11.416-10.429 17.761-14.666 3.821-2.527 8.848-3.778 13.502-4.412 5.445-0.722 11.088-0.187 16.862-0.187 0 1.232 0.373 3.186-0.124 4.916-0.373 1.606-1.319 3.666-2.633 4.325-19.891 10.143-33.394 26.17-42.505 46.193-2.44 5.29-4.674 10.714-7.201 16.005zM458.359 683.582c0.946-14.907 2.415-29.88 4.761-44.656 2.023-12.953 11.417-20.769 22.35-26.785 1.382-0.79 2.944-1.251 4.854-2.016 0.635 0.859 1.319 1.867 2.11 2.962-0.921 0.722-1.693 1.207-2.284 1.823-2.633 2.701-5.533 5.228-7.728 8.277-3.908 5.421-1.606 10.67 1.929 15.149 3.143 4.039 7.267 6.806 12.8 6.828 7.684 0.022 15.39 0.622 23.053 0.436 7.772-0.187 13.063-4.898 15.325-12.229 2.303-7.53 2.11-15.039 0.249-22.701 3.161-1.886 5.134-0.124 6.938 2.11 9.089 11.505 14.534 24.129 14.336 39.255-0.187 12.668 1.276 25.358 1.406 38.047 0.124 11.197-0.373 22.416-0.921 33.613-0.062 1.668-1.494 3.977-2.962 4.786-12.383 6.828-25.27 11.966-39.76 12.229-14.051 0.249-27.992-0.436-41.627-3.778-5.421-1.294-10.494-4.151-14.336-5.732 0-6.433 0.062-11.548-0.022-16.62-0.124-10.34-1.077-20.681-0.436-31zM499.033 586.321c-0.56-9.155 1.649-12.624 8.717-13.481 8.277-1.077 14.446 2.676 15.851 10.384 2.788 15.347 5.645 30.693 4.786 46.457-0.373 6.211-2.066 7.926-8.365 7.926h-15.105c-6.982 0-12.866-3.049-13.173-7.245-0.56-7.882 0.124-14.227 9.002-16.335-0.622-9.221-1.12-18.464-1.711-27.707zM457.671 568.033c-2.371-2.987-4.873-5.931-6.806-9.177-4.761-7.97-1.929-15.763 1.736-23.009 3.423-6.806 7.552-13.261 11.856-19.54 5.775-8.497 14.534-13.261 24.15-14.82 8.651-1.406 17.871-1.319 26.588-0.044 13.963 2.023 21.867 12.448 28.014 24.019 5.819 10.977 7.092 23.14 8.299 35.325 0.765 7.464-5.819 18.727-14.293 21.494-3.84-15.72-13.963-24.524-26.631-22.833-14.863 2.023-23.447 9.726-26.060 25.687-10.67-3.137-19.891-8.321-26.851-17.103zM474.732 445.591c-2.39 1.363-4.325 0.834-6.389-0.79-6.235-4.873-12.536-9.616-18.925-14.534 18.244-9.748 35.984-19.342 53.833-28.783 4.674-2.483 9.155 0.498 9.419 5.707 0.56 12.009-4.568 20.396-15.193 25.819-7.706 3.977-15.193 8.342-22.745 12.58zM430.405 402.887c-20.308 1.077-39.98-2.396-58.707-10.604-8.496-3.734-13.7-10.626-18.574-18.179-6.235-9.638-9.901-19.891-10.406-32.603 1.973 1.929 3.361 3.093 4.5 4.481 9.968 11.943 23.843 16.488 38.311 18.771 12.449 1.935 25.182 2.216 37.807 2.726 5.968 0.249 11.987-0.79 18.179-1.251 1.911 10.495-3.137 22.855 9.001 32.032-7.486 1.799-13.721 4.325-20.11 4.63zM343.354 294.653c1.232-8.079 4.612-15.873 7.223-23.733 5.925-17.805 19.232-28.058 36.225-33.7 17.388-5.775 34.491-6.080 52.297 0.946 12.602 5.004 21.428 12.821 28.761 23.338 4.985 7.223 4.481 15.5 4.612 23.755 0.124 8.826-4.63 14.227-11.504 18.332-2.987 1.799-6.167 3.336-9.419 4.587-7.75 3.074-10.494 8.892-10.34 16.862 0.187 9.463 0.044 18.925 0.044 28.761-4.612 0.498-9.111 1.207-13.634 1.319-7.991 0.187-15.984 0.373-23.975 0-13.238-0.622-26.346-2.987-38.113-9.111-10.78-5.62-18.266-15.676-22.064-26.741-2.545-7.377-1.382-16.532-0.124-24.612zM486.485 280.605c0.311-3.796 1.033-5.601 5.315-5.421 5.271 0.187 10.626-0.187 15.917-0.635 3.249-0.249 4.587 0.622 4.394 4.107-0.249 4.257-0.062 8.562-0.062 12.866 0.022 5.794 3.952 11.043 9.55 12.031 4.039 0.678 8.211 0.99 12.317 0.902 6.498-0.187 12.975-7.443 13.041-14.819 0-3.603-1.164-7.179-1.469-10.802-0.124-1.363 0.747-2.769 1.145-4.17 0.765 1.077 1.929 2.085 2.24 3.274 0.765 2.962 0.921 6.080 1.711 9.023 1.189 4.369 4.35 6.806 8.672 7.882 13.832 3.51 21.231-1.711 24.458-18.772 9.572 1.867 19.913 1.886 28.212 5.993 10.011 4.96 17.3 14.007 19.034 26.17 1.842 13.041 3.865 26.038 5.95 39.804-11.746-0.062-22.679-0.834-28.564 10.494-4.238 8.145-1.581 18.925 6.894 28.344-3.578 5.072-9.353 4.898-14.446 5.508-9.748 1.139-9.353 0.834-10.363-9.155-0.902-9.111-2.458-18.223-4.412-27.202-2.788-12.58-12.163-19.54-23.36-23.799-14.49-5.533-29.463-5.838-44.656-2.875-15.807 3.049-26.126 12.229-31.242 27.137-3.093 8.913-3.995 18.31-3.709 27.773 0.124 4.213 0 8.716-4.916 10.165-5.004 1.45-10.012 1.755-14.49-2.216-6.521-5.794-9.353-12.558-9.155-21.472 0.373-15.061-0.311-30.122-0.747-45.183-0.062-3.049 1.077-4.612 3.535-5.732 1.973-0.921 3.883-2.023 5.925-2.875 16.158-6.74 22.043-20.155 23.294-36.335zM677 383.716c-7.069 5.931-14.051 11.746-21.362 17.871-9.814-6.872-19.387-13.875-29.354-20.374-3.734-2.458-7.069-4.941-8.782-9.111-1.842-4.524-2.701-7.97 3.317-13.107 3.821-3.249 9.638-4.524 13.349-2.24 13.941 8.628 27.817 17.3 41.714 25.95 0.249 0.124 0.373 0.373 1.12 1.008zM575.659 513.509c-0.921 2.57-4.96 4.039-7.619 5.95-0.311 0.187-0.921-0.062-1.319 0.044-8.848 3.031-13.436-1.139-17.894-8.606-7.991-13.502-21.252-19.715-36.291-22.46-2.44-0.436-4.96-0.765-7.443-0.834-5.974-0.124-8.848-2.371-9.089-8.189-0.373-9.287-0.311-18.618-0.436-27.926-0.062-4.213 2.614-6.258 5.881-7.992 9.309-4.985 16.839-11.965 19.013-22.503 1.425-7.070 1.139-14.644 0.498-21.889-0.498-5.881-6.192-9.068-12.163-7.904-2.72 0.498-5.333 1.599-8.057 2.066-1.668 0.249-4.35 1.095-4.257-2.066 0.249-10.012-0.311-20.133 1.319-29.925 1.911-11.373 11.351-16.532 21.516-18.903 13.481-3.143 27.092-3.161 40.397 1.823 6.916 2.589 10.561 7.772 13.107 14.38 4.524 11.614 1.799 23.667 2.614 35.501 0.187 2.657 0.022 5.315 0.022 7.991h0.834v66.106c0 10.912 0.044 21.845-0.022 32.8 0 4.238 0.747 8.782-0.635 12.536zM969.506 479.481c-22.196 0.124-44.393 0.124-66.611-0.044-2.303-0.022-4.96-0.859-6.806-2.216-5.091-3.709-10.099-7.706-14.71-12.009-9.946-9.309-21.537-13.721-35.172-13.349-8.408 0.249-16.861-0.022-25.292-0.124-12.009-0.124-23.974-0.622-35.94-0.311-10.165 0.249-20.484 1.226-29.090 7.223-15.325 10.67-30.342 21.779-45.402 32.845-9.353 6.915-18.354 14.358-27.861 21.033-2.9 2.066-6.96 2.9-10.604 3.274-3.883 0.373-5.906-2.72-4.437-6.345 1.077-2.657 2.328-5.508 4.307-7.553 9.835-10.187 20.44-19.606 31.966-27.905 18.025-12.953 36.006-26.016 54.25-38.662 7.026-4.873 14.863-7.487 23.931-7.443 45.995 0.373 92.057 0.187 138.096 0.187h5.931c-4.524-4.481-8.123-8.101-11.877-11.57-0.747-0.66-2.128-0.859-3.23-0.859-19.254 0.062-38.487 0.249-57.719 0.436-3.292 0.044-6.564 0.311-10.89 0.498 5.333-4.941 9.572-9.243 14.249-13.041 2.527-2.041 5.601-4.107 8.651-4.568 4.126-0.622 8.496 0.436 12.756 0.498 6.149 0.124 12.273 0.022 19.387 0.022-4.35-4.3-7.838-8.102-11.703-11.439-1.624-1.363-3.977-2.502-6.037-2.57-8.123-0.311-16.29-0.436-24.392 0.022-3.336 0.187-7.157 1.232-9.704 3.249-7.509 5.974-14.6 12.448-21.56 19.078-1.886 1.842-3.56 2.483-6.037 2.458-14.227-0.062-28.432 0.124-42.658-0.062-9.946-0.187-18.969 3.23-26.829 8.453-10.67 7.026-20.462 15.39-30.385 23.536-14.402 11.768-28.607 23.777-42.79 35.808-5.794 4.898-12.427 9.331-16.862 15.346-7.904 10.758-10.121 22.877-2.987 35.304 1.052 1.842 2.396 3.554 3.578 5.315-5.558 2.813-10.736 5.508-15.983 8.123-11.768 5.862-23.536 11.724-35.37 17.454-1.12 0.56-2.919 0.622-4.064 0.124-8.123-3.404-16.444-5.29-25.314-4.724-3.666 0.249-7.421 0.311-11.065-0.062-1.182-0.124-2.9-1.693-3.186-2.944-1.12-4.369-1.736-8.936-2.57-13.414-0.902-4.873 0.311-6.345 5.246-6.543 10.121-0.498 18.003-4.873 21.911-14.337 2.39-5.819 3.336-12.251 4.898-18.266 7.838-3.205 16.29-5.819 23.887-10.033 6.192-3.423 11.483-8.628 16.971-13.26 8.123-6.85 16.005-13.963 24.172-20.791 16.115-13.525 32.471-26.785 48.542-40.397 14.205-12.031 27.905-24.611 42.241-36.423 4.126-3.361 9.55-6.192 14.71-7.004 9.089-1.363 18.464-1.251 27.728-1.294 23.975-0.124 47.95-0.022 71.924-0.022 1.033 0 2.066-0.249 3.821-0.436-3.821-3.821-6.916-7.224-10.341-10.165-1.537-1.294-3.796-2.346-5.732-2.396-26.478-0.124-52.977-0.311-79.476 0-9.924 0.124-19.562 2.172-27.466 9.002-8.606 7.421-17.278 14.776-25.906 22.152-12.8 10.933-25.644 21.823-38.421 32.757-11.878 10.186-23.602 20.571-35.655 30.539-11.57 9.594-23.272 19.013-35.369 27.926-5.707 4.213-12.383 7.311-19.825 6.018 0.062-1.425 0.436-2.614 0.249-3.753-0.902-6.609 1.469-11.197 6.652-15.852 14.974-13.37 29.266-27.597 43.8-41.472 4.151-3.995 8.146-8.145 12.47-11.9 9.924-8.562 20.045-16.905 30.034-25.401 6.916-5.931 13.524-12.185 20.616-17.871 10.078-8.080 20.308-15.939 30.737-23.558 8.87-6.498 18.2-10.735 30.012-10.297 24.567 0.859 49.179 0.249 73.724 0.249h4.873v-90.345c-0.703-0.124-1.095-0.249-1.537-0.249-68.982-0.044-137.943-0.124-206.924 0.124-7.333 0.022-14.293 2.614-17.871 10.406-1.886 4.126-4.456 7.948-7.048 11.68-0.859 1.232-2.9 2.657-4.083 2.44-7.267-1.382-14.446-3.23-21.911-4.96 0-7.64-0.062-15.325 0.062-23.030 0.022-1.294 0.834-2.745 1.693-3.796 3.317-4.151 7.135-7.904 10.121-12.273 6.718-9.638 15.939-13.7 27.377-13.436 16.993 0.373 33.986 1.232 50.979 1.207 23.953-0.062 47.884-0.965 71.836-1.189 29.88-0.187 59.805-0.022 89.686-0.022h4.96c-0.635-1.867-0.902-3.336-1.581-4.587-9.265-16.115-22.504-26.368-41.714-26.478-37.916-0.187-75.788-0.062-113.704 0-2.875 0-4.873-0.878-6.894-2.919-26.521-26.654-53.131-53.219-79.74-79.784-1.033-1.077-2.172-2.066-3.952-3.666 0 15.28 0.124 29.507-0.124 43.69-0.044 3.006-1.033 6.411-2.701 8.891-3.647 5.333-7.816 10.363-12.141 15.215-2.066 2.259-2.9 4.412-2.875 7.443 0.498 31.154 0.921 62.286 1.276 93.44 0.062 5.445 0.124 10.933-0.311 16.356-0.436 5.178-3.143 7.64-7.706 7.926-7.815 0.436-9.77-0.56-11.284-6.608-0.678-2.832-1.182-5.794-1.139-8.717 0.062-14.161 0.498-28.343 0.622-42.526 0.124-21.318-0.022-42.636 0.124-63.954 0-2.527 0.373-5.508 1.736-7.53 3.865-5.838 8.145-11.483 12.624-16.927 3.622-4.412 6.762-8.914 6.74-14.886-0.062-14.644-0.062-29.31-0.373-43.932-0.062-2.11-1.12-4.587-2.545-6.149-4.985-5.421-10.143-10.758-15.654-15.72-9.068-8.168-19.584-13.744-32.844-16.247v53.592c0 1.911 0.124 3.84-0.022 5.775-0.311 4.5-1.45 8.497-5.601 11.307-4.481 3.099-8.189 7.487-12.931 10.012-7.509 4.039-8.606 10.012-8.299 17.696 0.249 5.271 1.649 9.111 5.377 12.8 9.835 9.814 19.606 19.672 28.849 30.034 3.143 3.51 6.455 8.54 6.543 12.931 0.622 28.256 0.373 56.534 0.249 84.812-0.022 3.074-0.678 6.433-2.041 9.177-1.494 3.074-8.76 4.35-13.327 2.657-4.213-1.556-5.819-5.116-5.819-9.419 0-22.635 0.062-45.293-0.062-67.928-0.062-7.531-1.033-14.754-6.916-20.66-9.638-9.616-18.815-19.649-28.102-29.573-3.84-4.126-6.806-8.474-6.762-14.71 0.187-32.252 0.062-64.525 0.062-96.799v-4.481c-4.898 3.952-9.287 6.828-12.953 10.45-38.707 38.553-77.303 77.215-115.877 115.877-2.128 2.153-4.213 3.074-7.311 3.049-37.433-0.062-74.888-0.062-112.321-0.022-2.9 0-5.794 0.436-8.694 0.859-20.857 2.832-38.947 23.821-38.684 45.688 0.249 25.446 0.062 50.936 0.062 76.359v4.96c10.033 0 19.495 0.124 28.936-0.022 6.938-0.124 13.173 1.581 18.047 6.586 8.079 8.211 15.786 16.818 23.931 24.941 9.924 9.923 19.54 20.22 30.363 29.112 13.481 11.109 28.124 20.813 42.065 31.352 4.699 3.554 8.738 7.926 13.612 12.382-1.537 0.311-1.823 0.436-2.066 0.436-42.658 0.311-85.251 0.622-127.865 0.921-1.581 0.022-3.379 0.062-4.674 0.79-6.345 3.647-12.712 7.311-18.838 11.329-8.474 5.533-16.707 11.416-25.094 17.103-4.699 3.161-9.704 4.761-15.632 4.63-20.857-0.311-41.714-0.124-62.571-0.062-1.537 0-3.491 0.062-4.5 0.965-3.865 3.361-7.443 7.091-11.987 11.526 5.004 0.311 8.782 0.722 12.536 0.722 22.79 0.062 45.578 0.187 68.39 0 6.696-0.022 12.865 0.124 19.364-4.811 13.326-10.209 28.146-18.53 42.46-27.443 1.998-1.232 4.568-2.197 6.828-2.153 17.169 0.062 34.338 0.678 51.506 0.703 52.714 0.124 105.383 0.124 158.096-0.022 5.514 0 9.88 0.834 14.337 4.786 13.546 12.031 27.487 23.667 41.714 34.886 6.652 5.271 4.786 11.592 4.151 18.025-0.062 0.921-0.722 2.216-1.45 2.57-4.213 1.954-8.452 5.029-12.799 5.246-17.257 0.878-34.557 0.66-51.835 1.251-5.004 0.187-8.519-1.736-12.185-4.724-5.134-4.151-10.758-7.047-17.937-7.026-111.158 0.124-222.315 0.062-333.494 0.062-1.182 0-2.483-0.311-3.51 0.062-1.164 0.436-2.633 1.232-3.074 2.284-7.838 19.21-7.179 38.179 1.649 56.973 4.941 10.473 13.217 18.113 21.099 26.192 2.216 2.284 4.412 3.292 7.706 3.292 78.379-0.062 156.757-0.062 235.136-0.062 0.859 0 1.711 0.022 2.545 0.124 0.124-0.187 0.311-0.311 0.436-0.436 0.373 0.187 0.747 0.373 1.139 0.56-0.498-0.022-1.052-0.044-1.556-0.062-8.145 8.891-16.203 17.871-24.523 26.543-1.512 1.537-4.282 2.589-6.477 2.589-38.465 0.187-76.952 0.062-115.438 0.187-3.292 0-5.707-0.765-8.234-3.118-3.491-3.317-7.53-6.105-11.526-8.826-5.134-3.448-9.792-7.486-16.949-7.113-11.658 0.622-23.36 0.249-35.040 0.249-4.064 0.022-8.102 0.022-12.317 0.022 6.080 9.463 13.59 14.622 24.853 12.624 3.734-0.66 7.706-0.311 11.526-0.044 7.948 0.635 15.829 1.929 22.241 7.158 3.865 3.137 7.003 7.201 10.824 10.472 1.693 1.425 4.238 2.657 6.433 2.657 41.714 0.124 83.45-0.062 125.186 0.249 5.228 0.062 8.825-1.338 12.273-4.699 20.44-19.869 40.836-39.825 61.452-59.563 12.251-11.746 24.94-23.031 37.323-34.689 5.62-5.271 12.141-9.55 19.584-10.121 11.856-0.921 23.865-0.249 36.554-0.249-1.251 2.197-2.458 4.587-3.933 6.806-6.696 10.143-11.79 20.945-13.766 32.976-0.56 3.535-1.668 4.412-5.091 3.933-8.694-1.251-16.708 0.311-23.206 6.828-2.57 2.614-5.072 5.29-7.772 7.75-15.303 13.7-30.649 27.312-45.974 40.99-5.271 4.717-10.495 9.572-15.829 14.227-8.716 7.509-18.069 14.38-26.104 22.547-8.54 8.694-18.552 12.119-30.144 11.922-20.264-0.373-40.485-1.12-60.705-1.469-14.951-0.249-29.924-0.124-44.853-0.124h-20.637c6.037 7.399 12.316 14.029 19.166 20.023 4.699 4.126 7.158 8.54 6.235 14.907-0.498 3.404-0.062 6.938-0.062 10.538 27.794 0 54.887 0.062 81.957-0.124 2.57 0 5.464-1.319 7.552-2.9 17.717-13.612 35.435-27.246 52.801-41.231 13.876-11.197 27.334-22.877 40.836-34.469 12.097-10.407 23.887-21.186 36.028-31.527 6.74-5.75 13.81-11.087 20.901-16.356 4.5-3.379 9.967-2.72 14.929-1.867 1.973 0.373 3.379 3.927 5.047 6.037 1.469 1.842 2.919 3.734 4.481 5.489 8.628 9.572 18.837 16.729 32.164 20.484-16.796 8.825-25.007 22.877-28.036 40.199-1.469 8.519-2.303 17.125-3.491 26.061-6.124 0-12.031-0.062-17.915 0.022-10.231 0.187-19.078 3.535-26.741 10.648-9.836 9.111-20.199 17.696-30.408 26.433-12.514 10.736-25.467 21.055-37.609 32.23-13.832 12.646-27.971 24.721-43.909 34.733-6.784 4.195-13.634 6.192-21.472 6.080-23.689-0.311-47.378-0.373-71.046-0.498-5.271-0.022-10.538 0-16.51 0 0.436 9.55 0.373 18.091 1.382 26.522 2.483 21.186 24.172 39.167 46.325 38.926 37.455-0.436 74.932-0.062 112.365-0.187 3.074-0.044 5.178 0.859 7.311 3.031 34.359 34.491 68.828 68.916 103.21 103.385 1.077 1.095 1.512 2.857 2.259 4.282 0.498-0.498 1.008-0.99 1.494-1.469v-28.3c7.816 1.979 15.588 3.952 22.658 5.732 0 7.179 0.187 14.249-0.062 21.297-0.249 6.167-1.164 12.317-1.382 18.486-0.022 1.276 1.382 3.093 2.633 3.753 8.562 4.767 17.783 7.443 28.080 8.189v-49.772c13.239-0.859 25.995-1.693 38.926-2.57-0.66 14.424-1.363 29.353-2.041 44.787 2.987-1.799 5.508-3.137 7.904-4.742 4.039-2.657 6.433-5.732 6.192-11.307-0.436-9.857 0.311-19.781 0.747-29.683 0.044-1.077 0.834-2.701 1.711-3.049 3.336-1.363 6.894-2.346 10.758-3.578v29.2c1.711-1.624 2.857-2.701 3.952-3.796 33.722-33.679 67.401-67.401 101.19-101.014 1.581-1.537 4.257-2.676 6.411-2.676 36.577-0.124 73.131-0.373 109.686 0 16.378 0.187 29.661-5.402 40.068-17.805 6.477-7.684 10.252-16.686 10.275-26.697 0.187-38.464 0.124-76.951 0.022-115.438 0-2.857 0.809-4.873 2.857-6.938 34.71-34.579 69.355-69.224 103.956-103.912 6.018-6.037 11.943-12.229 17.652-18.574 5.228-5.794 8.299-12.777 10.933-20.769h-5.246c-19.672 0-39.343 0.022-59.059 0-10.955 0-21.033-2.041-28.146-11.614-1.823-2.458-4.17-4.674-6.608-6.52-9.682-7.223-19.759-13.853-29.068-21.494-4.96-4.083-10.033-4.107-15.61-3.753-2.788 0.187-5.551 0.635-8.342 0.622-14.951-0.124-29.903-0.498-44.832-0.66-1.911-0.022-4.126 0.498-5.732 1.537-22.262 14.556-44.37 29.398-66.699 43.844-4.829 3.143-10.406 5.315-15.807 7.443-5.377 2.172-14.6-4.238-12.58-11.57 0.79-2.788 2.483-5.838 4.724-7.64 11.175-9.111 22.438-18.266 34.205-26.587 12.339-8.782 25.358-16.598 37.96-24.963 7.421-4.898 15.214-7.991 24.304-7.904 20.55 0.187 41.122 0.062 61.693 0.062 1.624 0 3.274 0.124 4.854 0.373 9.704 1.537 16.993 7.838 24.436 13.26 12.119 8.87 23.338 18.881 35.106 28.212 1.755 1.425 4.412 2.415 6.696 2.44 20.857 0.187 41.736 0.124 62.593 0.124h5.645c-2.701-8.98-5.097-16.971-7.487-24.919-0.834-2.832-2.657-3.647-5.601-3.603z" fill="rgb(88, 39, 26)"></path>
  <path style="fill: rgb(69, 28, 21);" d="M980.833 580.699c-35.216 35.304-70.541 70.563-105.866 105.756-2.57 2.57-3.796 5.072-3.753 8.87 0.124 34.315 0.311 68.653-0.062 103.012-0.373 34.952-29.661 67.555-64.305 71.968-4.811 0.622-9.704 0.921-14.557 0.921-32.427 0.062-64.832 0.062-97.259-0.022-3.336 0-5.732 0.902-8.123 3.317-35.325 35.457-70.694 70.827-106.107 106.174-18.991 18.969-42 28.936-68.828 28.936-26.807-0.044-49.838-9.967-68.85-28.936-35.391-35.347-70.761-70.717-106.064-106.174-2.396-2.396-4.767-3.317-8.145-3.317-32.998 0.124-65.996 0.124-98.995 0.062-37.521-0.124-67.708-24.502-75.656-61.1-1.12-5.178-1.425-10.56-1.494-15.851-0.187-15.83-0.062-31.681-0.062-47.51 0-17.169-0.062-34.338 0.124-51.528 0.044-3.535-0.965-5.993-3.491-8.475-35.457-35.303-70.848-70.672-106.195-106.086-18.947-19.013-28.805-42.044-28.783-68.894 0.062-26.302 9.55-49.091 28.124-67.775 35.567-35.808 71.309-71.441 107.096-107.074 2.24-2.259 3.23-4.456 3.23-7.706-0.124-33.174-0.124-66.304-0.062-99.455 0.062-40.046 28.893-72.276 68.631-76.864 3.535-0.373 7.113-0.249 10.648-0.249 32.581-0.044 65.14 0.022 97.677-0.124 2.328 0 5.203-1.207 6.85-2.832 35.479-35.282 70.782-70.695 106.217-106.042 34.666-34.579 89.883-38.245 128.831-8.54 3.753 2.9 7.223 6.149 10.56 9.506 34.996 34.908 69.97 69.839 104.878 104.878 2.24 2.259 4.456 3.23 7.706 3.23 32.998-0.124 65.996-0.124 99.016-0.044 37.806 0.062 68.060 24.348 75.985 61.188 1.319 5.993 1.512 12.339 1.537 18.508 0.124 32.252 0.124 64.547 0 96.798-0.022 3.23 0.878 5.489 3.186 7.75 35.544 35.413 71.046 70.87 106.481 106.394 19.1 19.144 28.936 42.329 28.717 69.333-0.187 26.499-10.055 49.245-28.783 67.994zM991.096 433.337c-33.986-34.030-67.994-68.060-102.089-102.002-2.502-2.527-3.516-5.004-3.466-8.54 0.187-16.422 0.062-32.822 0.062-49.266 0-14.82 0.249-29.617-0.062-44.415-0.187-6.894-0.722-13.963-2.303-20.616-9.989-41.693-45.468-69.751-88.456-70.058-31.352-0.187-62.747-0.062-94.142 0.044-3.249 0.022-5.464-0.99-7.728-3.274-20.308-20.484-40.726-40.88-61.144-61.276-15.522-15.456-30.518-31.505-46.764-46.149-25.182-22.679-55.304-31.131-88.763-26.609-25.161 3.404-46.347 15.017-64.218 33.042-33.591 33.811-67.401 67.423-101.036 101.168-2.172 2.172-4.3 3.093-7.355 3.093-30.495-0.124-60.991-0.124-91.486 0-6.167 0-12.448 0.187-18.551 1.232-45.491 8.057-75.986 47.927-75.239 91.002 0.498 30.78 0.062 61.561 0.187 92.364 0 3.336-0.946 5.732-3.336 8.145-34.096 33.92-68.126 67.928-102.090 101.98-44.173 44.304-44.151 113.419 0.044 157.614 33.898 33.942 67.774 67.863 101.782 101.673 2.657 2.657 3.647 5.246 3.603 8.936-0.124 30.935-0.187 61.847 0.044 92.804 0.044 7.047 0.622 14.249 2.216 21.054 9.748 41.582 45.578 70.036 88.302 70.255 31.395 0.187 62.747 0.062 94.12-0.022 3.404-0.044 5.75 1.033 8.123 3.423 21.889 22.043 43.866 44.019 65.887 65.952 13.941 13.898 27.4 28.366 42.065 41.451 25.116 22.481 55.063 30.956 88.346 26.521 25.204-3.361 46.391-14.929 64.283-32.954 33.701-33.898 67.555-67.642 101.498-101.343 1.649-1.649 4.524-2.857 6.828-2.857 30.78-0.187 61.561-0.062 92.386-0.187 5.881 0 11.877-0.124 17.651-1.182 44.195-7.904 75.261-45.029 75.349-89.927 0.062-30.956 0.062-61.869-0.062-92.803 0-3.84 1.077-6.543 3.84-9.287 33.679-33.503 67.204-67.16 100.882-100.685 21.209-21.099 32.845-46.5 33.657-76.336 0.878-31.835-10.209-59.3-32.8-81.957z" fill="rgb(88, 39, 26)"></path>
</svg>
