<svg width="60" height="60" viewBox="0 0 1024 1024" xmlns="http://www.w3.org/2000/svg">
  <path style="fill: rgb(232, 203, 158);" d="M511.96 1009.647c-25.672 0-49.786-9.989-67.939-28.115l-401.592-401.592c-37.434-37.46-37.434-98.418 0-135.824l401.619-401.619c18.153-18.153 42.24-28.142 67.912-28.142 25.645 0 49.732 9.989 67.885 28.142l401.619 401.619c18.153 18.126 28.115 42.24 28.115 67.912 0 25.645-9.963 49.759-28.115 67.912l-401.592 401.592c-18.153 18.126-42.267 28.115-67.912 28.115z" fill="rgb(88, 39, 26)"></path>
  <path style="fill: rgb(232, 203, 158);" d="M511.919 14.436c-24.615-0.001-49.209 9.362-67.894 28.047l-401.581 401.621c-37.389 37.389-37.389 98.399 0 135.788l401.581 401.621c18.697 18.681 43.321 28.046 67.933 28.047s49.185-9.369 67.894-28.047l401.621-401.621c37.36-37.391 37.36-98.397 0-135.788l-401.621-401.621c-18.697-18.681-43.319-28.046-67.933-28.047z" fill="rgb(237, 212, 173)"></path>
  <path style="fill: rgb(69, 28, 21);" d="M1009.007 512.191c0-3.155 0.027-6.255-0.027-9.41 0-0.971-0.243-1.968-0.377-2.939-3.074-23.107-13.697-42.17-30.118-58.591-132.227-132.011-264.292-264.13-396.384-396.249-1.402-1.375-2.777-2.831-4.26-4.152-22.541-20.546-48.938-29.039-79.191-25.13-22.272 2.885-40.768 13.158-56.542 28.931-118.503 118.611-237.086 237.14-355.643 355.697-15.18 15.18-30.495 30.172-45.433 45.595-15.45 15.908-24.294 35.241-26.046 57.324-2.481 30.738 7.684 56.892 29.632 78.705 46.43 46.188 92.672 92.591 138.995 138.914 86.336 86.363 172.645 172.752 259.061 259.034 38.773 38.719 98.739 39.636 136.73 1.699 134.222-133.926 268.229-268.013 402.262-402.181 18.416-18.47 27.368-41.146 27.341-67.246zM512.105 0c30.226 0.431 56.326 10.812 77.573 32.059 133.845 133.602 267.555 267.366 401.238 401.13 24.132 24.105 35.079 53.495 32.679 87.414-1.914 27.341-13.104 50.771-32.571 70.185-114.782 114.836-229.618 229.645-344.426 344.48-18.2 18.2-36.454 36.346-54.6 54.6-24.294 24.456-53.63 36.077-87.981 33.866-26.801-1.726-50.124-12.295-69.268-31.169-28.419-28.042-56.542-56.407-84.772-84.637-105.264-105.264-210.501-210.582-315.846-315.765-24.375-24.375-36.077-53.657-33.866-87.981 1.807-27.907 13.32-51.661 33.111-71.452 52.201-52.12 104.347-104.32 156.494-156.494 81.132-81.078 162.21-162.21 243.342-243.261 21.786-21.786 48.21-32.679 78.894-32.976z" fill="rgb(142, 118, 106)"></path>
  <path style="fill: rgb(69, 28, 21);" d="M385.796 276.169c-3.263 11.702-9.194 20.627-20.519 26.559-12.807 6.741-22.137 2.4-32.329-6.66-2.319 20.411-15.234 27.988-33.111 28.069-6.040 0.027-12.268-3.155-14.587-11.54-0.944 2.588-1.726 4.098-1.941 5.662-1.429 10.273-6.956 17.85-15.396 23.458-2.777 1.807-5.608 4.368-8.655 4.746-8.224 1.105-8.278 0.701-14.533-5.554-1.753 4.368-3.209 8.925-5.312 13.185-5.312 10.65-14.695 15.045-26.559 12.619-3.775-0.782-7.442-2.103-11.217-2.723-1.079-0.189-2.885 0.917-3.559 1.914-3.182 4.746-6.202 9.599-9.087 14.506-6.822 11.567-17.31 13.94-29.686 12.565-5.878-0.674-9.491-4.152-12.673-8.466-0.62-0.863-0.135-2.831 0.27-4.152 0.216-0.836 1.294-1.402 2.022-2.103 104.293-104.32 208.64-208.613 312.88-312.961 12.349-12.376 26.532-20.357 44.139-21.84 19.063-1.618 35.753 3.883 50.259 16.286 2.265 1.914 4.341 4.071 6.444 6.148 120.741 120.768 241.535 241.535 362.33 362.249 1.348 1.375 3.289 2.184 4.53 4.044-9.68 5.177-18.739 8.224-28.904 4.557-11.082-3.991-11.486-14.991-16.205-24.213-1.052 1.375-2.022 2.454-2.696 3.694-8.251 15.612-28.635 11.756-34.944 0.647-4.044-7.118-6.148-15.342-9.087-23.053-1.052-2.75-1.995-5.554-3.047-8.386-12.888 9.895-28.257 8.278-36.481-3.343-4.665-6.606-6.255-13.94-6.687-21.759-0.216-4.071-0.404-8.143-0.647-12.754-9.599 7.118-16.825 6.714-25.992 0.135-10.219-7.388-14.695-17.607-16.232-29.659-0.189-1.537-0.701-3.101-1.159-5.204-8.332 9.060-17.391 7.415-26.747 3.074-5.447-2.508-8.197-7.361-9.356-12.592-1.968-8.898-2.885-18.038-4.233-26.909-7.226 5.5-16.232 8.574-25.992 10.138-9.14 1.456-17.957-5.554-19.548-13.374-0.971-4.907-1.753-9.842-2.669-15.153-4.907 10.596-13.859 14.263-24.617 14.479-11.864 0.27-21.463-8.17-23.377-19.899-0.566-3.236-2.238-6.255-4.314-9.329-2.723 9.329-8.574 15.612-16.097 20.195-3.316 2.022-7.415 3.451-11.271 3.775-4.826 0.485-9.815-0.297-14.695-0.836-4.907-0.539-12.187-9.194-12.996-14.614-0.458-3.020-1.591-5.905-2.642-9.868-3.155 6.255-5.366 11.486-8.278 16.232-5.177 8.439-14.263 11.918-22.919 13.805-8.197 1.78-15.854-2.912-21.651-9.302-2.211-2.427-4.071-5.123-5.608-7.091-3.694 4.098-7.388 8.278-11.136 12.349-3.937 4.26-8.925 5.662-14.668 5.581-3.074-0.081-6.202 1.591-9.221 1.348-8.547-0.728-12.942-7.361-17.634-13.401-0.728-0.944-1.267-1.968-2.157-3.37-7.954 30.36-25.103 36.616-49.801 18.092z" fill="rgb(142, 118, 106)"></path>
  <path style="fill: rgb(69, 28, 21);" d="M510.824 735.93c9.653 7.846 19.306 15.693 29.093 23.674 2.481-7.819 6.606-13.589 13.616-17.877 4.907-2.993 8.52-8.116 12.727-12.268-0.377-0.324-0.728-0.674-1.079-1.025-3.613 1.968-7.091 4.746-10.947 5.608-3.559 0.809-7.577-0.458-11.729-1.699 9.815-6.956 12.511-17.796 17.796-27.044 2.427-4.206 6.552-7.927 10.731-10.543 5.905-3.613 8.332-8.871 9.626-14.641 1.726 3.748 3.128 8.035 5.527 11.648 2.157 3.182 5.15 6.040 8.332 8.197 6.336 4.368 10.462 9.518 12.43 17.391 1.483 6.013 6.094 11.217 9.572 17.175-7.765 3.182-15.369 0.351-23-3.667 4.826 8.574 13.616 11.648 21.49 16.151 5.447-10.677 14.668-16.744 23.161-23.889-6.714-2.157-11.756 3.37-17.283 3.478 1.968-6.067 3.883-12.241 5.932-18.362 2.049-6.148 5.123-11.351 10.57-15.504 4.826-3.64 8.682-8.601 13.077-13.077-0.027-0.054 0.593 0.944 1.052 2.049 2.535 6.849 6.768 12.214 13.293 15.827 6.956 3.829 10.381 10.327 12.079 17.742 1.24 5.231 1.995 10.57 3.128 16.582-6.93-3.155-13.724-6.282-20.465-9.41-0.27 0.485-0.512 0.944-0.782 1.402 5.15 2.993 10.812 5.366 15.288 9.14 4.638 3.91 8.116 9.194 12.673 13.347 3.101-9.761 10.839-13.67 16.852-19.090 2.4-2.211 4.665-4.665 6.471-7.604-6.067 3.397-10.435 9.761-18.551 9.437 4.961-13.428 7.307-27.583 17.796-38.207 2.912-2.939 4.341-7.361 6.822-11.783 1.267 11.19 11.028 14.371 18.092 19.656 6.741 5.015 10.731 10.812 11.136 19.090 0.108 2.265 0.216 4.53 0.377 7.658-7.388-1.78-14.263-3.37-21.139-5.015 2.022 3.478 5.096 6.552 9.464 8.359 7.631 3.101 14.911 6.714 19.144 12.43 4.638-4.017 9.491-7.927 14.021-12.187 3.937-3.721 7.523-7.765 10.381-12.403-6.39 2.723-12.754 5.42-19.009 8.062 2.561-7.954 4.557-15.18 7.226-22.137 1.079-2.75 3.289-5.393 5.635-7.253 6.417-5.123 11.055-11.19 12.781-19.333 0.135-0.593 0.62-1.132 1.321-2.319 3.289 11.298 10.273 18.793 20.195 23.674 1.132 0.566 2.157 1.51 3.020 2.508 5.123 5.635 5.042 7.118-0.216 12.43-6.363 6.309-6.363 6.309-13.778 3.775 3.343 6.606 3.343 6.606-2.346 12.322-76.872 76.872-153.824 153.717-230.642 230.696-12.349 12.376-26.693 20.114-44.273 21.517-18.658 1.483-35.133-3.91-49.423-15.908-2.022-1.699-3.883-3.586-5.743-5.447-76.063-76.090-152.153-152.18-228.35-228.108-4.071-4.044-4.934-7.577-1.699-11.891 3.451-4.719 6.983-9.464 11.109-13.562 5.581-5.527 8.871-12.079 11.217-19.359 0.189-0.62 0.377-1.213 0.593-1.78 0.027-0.108 0.27-0.108 0.297-0.108 1.052 4.179 1.348 8.709 3.316 12.376 1.86 3.505 5.177 6.363 8.278 8.979 6.687 5.635 13.239 11.001 15.099 20.492 1.079 5.635 3.964 10.92 6.175 16.663-6.175 2.292-11.567-1.78-18.119-3.775 6.471 11.54 20.546 9.788 27.961 20.384 3.667-13.751 17.283-18.712 21.382-31.789-9.464 2.858-16.043 11.729-25.615 8.763 4.071-6.282 9.033-12.026 11.81-18.658 3.316-7.927 7.819-14.641 13.643-20.789 5.554-5.824 10.974-11.837 11.783-20.6 0.809 2.993 1.591 6.040 2.427 9.033 2.669 9.572 8.332 16.825 16.286 22.757 5.797 4.368 8.925 10.623 10.677 17.796 1.213 4.988 3.937 9.653 5.986 14.479-3.694 2.346-11.702 0.054-29.525-7.361 2.481 1.753 4.772 3.829 7.415 5.123 8.197 4.017 15.126 9.464 19.845 17.229 2.615 4.233 4.26 9.006 6.309 13.562 0.782 1.753 1.456 3.532 2.561 6.094 2.615-5.447 4.314-10.408 7.199-14.56 3.128-4.449 7.28-8.197 11.055-12.187 2.885-3.047 5.986-5.932 8.817-8.952 0.944-0.998 1.51-2.292 2.157-3.236-3.155-0.485-6.336 1.105-9.707 3.236-5.366 3.37-11.028 6.282-16.717 8.979-1.564 0.755-3.775 0.135-6.067-0.243 5.635-3.775 6.983-9.599 8.655-15.45 2.642-9.275 10.111-14.938 17.229-20.384 11.217-8.655 18.982-19.359 22.757-33.245 0.944 17.095 10.866 28.042 24.59 36.319 6.606 3.937 11.163 8.898 10.893 17.283-0.243 7.55 2.993 13.859 9.087 19.575-7.631 1.025-12.349-2.454-16.501-6.956-4.53-4.934-9.383-9.329-16.421-9.895-1.24-0.108-2.561 0.863-4.88 1.726 13.778 7.226 24.806 15.153 32.976 26.693 0.782 1.079 4.341 1.807 5.015 1.105 9.895-10.435 21.894-19.063 28.877-32.113 0.054-0.135 0-0.297-0.054-0.944-4.584 3.424-8.898 6.876-13.455 9.868-4.611 3.101-9.491 6.228-15.234 1.591 7.873-5.959 10.111-14.452 11.837-23.134 1.186-5.878 2.939-11.19 8.224-14.991 8.359-5.986 15.18-13.239 15.746-25.264 1.105 2.4 2.103 3.91 2.535 5.581 2.427 9.14 8.359 15.342 16.043 20.465 2.642 1.78 4.799 4.692 6.498 7.523 1.672 2.777 2.238 6.202 3.721 9.114 2.885 5.689 5.447 11.81 12.807 13.724-5.15 3.802-17.095 3.128-30.064-0.512z" fill="rgb(142, 118, 106)"></path>
  <path style="fill: rgb(69, 28, 21);" d="M854.39 480.644c4.503 17.742 9.033 35.51 13.535 53.279 0.404-14.102-0.027-28.096-0.728-42.062-0.108-1.995-1.105-4.638-2.588-5.743-3.209-2.292-7.010-3.829-10.219-5.474zM279.241 444.594c3.964-4.961 7.118-9.114 10.435-13.104 10.947-13.050 22.595-25.184 39.15-31.169 2.993-1.079 4.179-3.020 4.017-6.363-0.593-9.68-0.836-19.386-1.105-29.093-0.135-4.692-0.027-9.356-0.027-14.587-2.13 0.512-3.721 0.755-5.231 1.213-4.179 1.348-8.386 2.615-12.511 4.125-7.577 2.858-15.396 5.312-22.541 9.060-4.017 2.103-8.008 5.959-9.976 10.003-2.022 4.206-2.076 9.599-2.13 14.479-0.189 18.038-0.081 36.104-0.081 55.436zM659.878 397.139c-1.348-7.711-2.427-14.965-3.91-22.164-3.667-17.607-7.469-35.241-11.378-52.821-0.243-1.159-1.402-2.642-2.481-3.020-5.5-1.941-11.055-3.802-16.69-5.123-6.336-1.483-12.888-1.968-19.225-3.559-14.668-3.667-29.39-4.017-44.246-1.348-4.017 0.701-5.339 2.966-4.206 6.633 0.89 2.966 2.454 5.743 3.289 8.709 3.182 11.298 6.336 22.649 9.060 34.054 0.755 3.182 2.13 3.883 4.934 4.044 5.204 0.377 10.462 0.701 15.558 1.645 17.175 3.289 32.167 12.106 47.752 19.386 7.415 3.451 13.994 8.709 21.544 13.562zM733.218 644.606c0.647-2.885 1.456-4.88 1.456-6.903 0.027-21.085 0.485-42.197-0.27-63.282-0.998-26.478-3.020-52.902-4.638-79.352-0.377-6.255-0.863-12.484-1.537-18.685-1.375-11.756-2.696-23.512-4.422-35.214-2.373-16.016-4.449-32.14-7.9-47.967-3.101-14.021-7.873-27.664-11.972-41.442-0.324-1.079-0.809-2.238-1.591-2.993-7.496-7.226-14.021-15.315-23.62-20.438-8.628-4.557-17.688-5.689-26.936-7.523 2.777 13.913 5.5 27.179 8.116 40.472 3.559 17.796 7.334 35.564 10.462 53.495 2.103 12.079 3.424 24.321 4.853 36.535 1.51 12.888 2.373 25.885 4.179 38.746 1.052 7.361 2.588 14.884 5.312 21.759 6.255 15.666 14.398 30.657 20.007 46.511 9.491 26.828 17.553 54.142 26.289 81.24 0.458 1.456 1.24 2.858 2.211 5.042zM615.605 585.638c22.406-17.984 44.543-35.996 73.286-42.979-3.505-9.41-7.145-18.065-9.922-26.936-3.074-9.842-8.412-18.578-9.14-29.632-1.672-26.019-5.366-51.904-8.386-77.842-0.243-1.914-1.294-4.341-2.777-5.339-9.033-6.121-18.146-12.187-27.529-17.715-5.042-2.966-10.623-5.015-16.070-7.199-8.035-3.236-15.935-6.822-24.213-9.167-5.986-1.699-12.511-1.645-19.171-2.427 1.914 9.976 3.964 19.359 5.527 28.85 2.076 12.942 3.748 25.938 5.662 38.935 1.429 9.868 3.020 19.71 4.395 29.605 2.346 17.095 3.694 34.324 7.145 51.176 3.263 15.989 8.493 31.547 13.185 47.212 2.292 7.792 5.204 15.396 8.008 23.458zM719.952 362.869c2.642 9.060 6.013 17.823 7.684 26.909 3.236 17.607 5.959 35.268 8.116 53.009 2.427 20.061 4.314 40.175 5.77 60.289 0.971 13.805 0.728 27.664 1.24 41.496 0.054 1.429 1.51 3.586 2.831 4.044 10.57 3.505 21.22 6.956 32.005 9.895 28.797 7.819 54.816 21.328 79.433 37.856 2.615 1.753 5.204 3.451 8.332 5.554-0.324-6.498-0.458-12.106-0.917-17.634-0.836-10.435-1.483-20.95-2.912-31.304-1.213-8.898-3.613-17.661-4.961-26.532-2.669-18.254-7.711-35.807-15.504-52.497-0.62-1.294-1.429-2.588-2.454-3.505-5.312-4.611-10.92-8.925-16.070-13.697-15.234-14.048-30.576-28.015-45.379-42.521-18.227-17.85-35.699-36.481-57.216-51.365zM524.146 311.612c-4.017-0.485-8.493-1.456-12.942-1.51-6.39-0.054-12.807 0.755-19.198 0.863-15.234 0.243-30.28 0.944-45.082 5.689-11.729 3.748-24.024 5.797-36.131 8.224-22.245 4.503-42.575 14.183-63.336 22.73-2.427 0.971-3.209 2.427-2.858 4.853 0.674 4.503 1.591 9.006 1.807 13.509 0.593 10.057 0.971 20.114 1.105 30.145 0.189 13.185-0.027 26.343 0.081 39.528 0.027 3.775 0.836 7.523 0.89 11.298 0.512 32.059 0.674 64.091-5.797 95.719-3.64 17.85-6.714 35.861-9.788 53.818-1.995 11.567-3.559 23.188-5.393 35.483 1.833-1.105 3.047-1.86 4.287-2.615 15.504-9.734 30.657-20.087 46.619-28.985 18.2-10.192 37.047-19.252 55.733-28.554 8.736-4.368 17.472-9.114 26.72-11.945 25.912-7.846 52.174-14.317 78.813-14.587 0-8.601-0.243-17.014 0.054-25.372 0.809-20.222 2.696-40.445 2.642-60.667-0.054-18.011-1.726-36.104-3.505-54.088-1.86-18.874-4.341-37.748-7.199-56.569-1.86-12.079-4.853-24.024-7.523-36.966zM274.953 511.948c-5.204 13.293-10.435 26.559-15.639 39.851-0.782 1.995-1.321 4.071-2.184 6.013-11.001 24.752-17.014 50.933-22.46 77.33-4.503 21.678-9.194 43.33-14.075 64.927-0.917 4.098-3.020 7.927-4.584 11.891-8.197-3.937-8.709-10.246-7.064-17.823 7.037-32.491 12.403-65.412 21.193-97.391 7.577-27.556 18.847-54.115 28.824-80.997 2.4-6.525 6.013-12.619 9.275-18.82 5.312-10.165 5.797-20.842 4.476-32.005-1.24-10.623-1.402-21.355-2.346-32.005-1.537-17.499 0.216-34.755 2.831-51.985 0.324-2.265 0.027-4.584 0.027-7.388-2.966 1.294-5.797 2.427-8.547 3.748-8.574 4.071-17.095 8.278-25.669 12.322-2.535 1.159-3.397 2.804-3.424 5.716-0.162 21.22-0.162 42.44-1.079 63.687-0.485 10.731-2.238 21.49-4.314 32.059-3.775 19.036-7.819 38.045-12.511 56.865-3.209 12.781-8.52 25.022-11.513 37.829-4.044 17.283-6.876 34.863-10.057 52.335-2.804 15.234-5.447 30.495-8.197 46.242-1.186-0.971-2.238-1.699-3.101-2.561-8.655-8.628-17.364-17.175-25.804-25.992-1.483-1.537-2.669-4.422-2.319-6.417 2.777-16.744 6.552-33.353 8.844-50.178 2.696-20.061 11.972-37.775 18.119-56.596 6.687-20.384 12.673-40.984 18.524-61.611 1.699-5.905 2.427-12.241 2.696-18.416 0.647-16.313 0.809-32.652 1.079-48.938 0.054-1.456-0.431-2.885-0.701-4.314-1.025-4.746 1.24-8.493 5.447-10.704 6.687-3.451 12.915-7.765 19.683-11.028 14.965-7.253 30.172-14.021 45.244-21.031 1.726-0.809 3.613-1.645 4.961-2.939 11.648-11.109 26.208-15.45 41.55-17.93 2.723-0.431 5.662-0.297 8.224-1.267 13.212-5.015 26.478-9.949 39.447-15.504 13.266-5.689 26.64-10.219 41.038-12.214 13.697-1.833 27.098-5.635 40.579-8.817 19.494-4.584 39.285-5.635 59.157-4.638 21.166 1.052 42.197-0.135 63.282-1.833 7.819-0.593 15.746 0.404 23.593 0.917 5.851 0.377 11.783 0.809 17.553 1.887 6.336 1.159 12.754 2.508 18.82 4.719 8.466 3.155 16.798 5.743 25.992 6.282 11.298 0.62 21.139 5.959 30.307 12.511 8.062 5.77 15.854 12.187 24.617 16.69 17.068 8.844 30.684 22.164 45.675 33.65 7.684 5.932 13.509 14.237 20.411 21.274 7.981 8.17 15.908 16.474 24.429 24.132 6.93 6.228 14.29 12.214 22.137 17.202 15.881 10.084 29.336 24.024 46.97 31.008 15.423 6.121 29.632 15.234 46.511 17.742 6.175 0.944 11.945 4.368 18.119 5.662 13.535 2.831 27.206 5.015 41.065 7.496 0 6.876 0.108 13.724-0.162 20.573-0.054 0.89-2.508 2.615-3.586 2.427-26.1-4.395-51.931-9.976-76.252-20.708-8.763-3.883-17.041-8.871-25.318-13.212 0 5.527 0.189 11.082-0.027 16.582-0.539 16.555-1.267 33.111-1.914 49.693-0.081 1.483-0.512 2.939-0.404 4.395 0.566 13.158 0.62 26.37 2.049 39.42 1.079 10.192 3.883 20.168 5.905 30.226 1.618 8.008 1.591 8.008-5.743 13.562-2.022-9.383-4.368-18.524-5.824-27.772-0.836-5.204-3.263-8.493-7.361-11.459-18.712-13.616-38.584-25.426-59.993-33.947-17.984-7.145-36.966-11.729-55.517-17.445-0.701-0.216-1.537-0.108-3.155-0.216v67.408c-0.027 22.164-1.941 44.381 1.78 66.302-8.817-3.748-13.266-9.114-15.773-17.688-11.082-37.506-22.325-74.957-33.596-112.409-1.132-3.748-2.858-7.334-4.287-10.866-19.225 3.829-35.16 13.913-50.61 24.968-7.334 5.231-14.641 10.543-21.813 16.016-0.755 0.566-1.052 2.508-0.782 3.64 5.959 25.157 12.079 50.259 18.119 75.416 1.914 7.954 0.944 10.785-5.069 15.693-1.968-9.14-3.559-18.2-5.851-27.044-5.608-21.732-11.324-43.411-17.418-64.981-7.684-27.233-16.34-54.25-23.377-81.644-3.263-12.619-3.667-25.965-5.474-38.962-1.699-12.673-3.505-25.318-5.258-37.964-2.022-14.479-3.775-28.958-6.094-43.384-1.375-8.736-3.289-17.391-5.42-25.992-2.292-9.060-5.258-17.93-7.684-26.909-2.103-7.873-3.883-15.827-5.878-24.051h-13.67c1.375 6.498 2.022 13.104 4.233 19.090 3.694 9.842 5.393 19.899 5.797 30.28 0.081 2.13 0.674 4.206 0.971 6.309 2.966 23.296 6.93 46.511 8.574 69.861 1.294 18.47-0.485 37.128-0.431 55.679 0.054 16.636-0.054 33.38 1.51 49.936 1.78 19.386 5.527 38.584 8.008 57.917 3.289 25.561 7.981 51.014 7.253 76.953-0.189 5.177-1.537 8.817-5.77 11.648-1.995 1.294-3.64 3.074-6.444 4.557-2.13-48.668-11.136-96.312-18.038-145.142-4.557 0.404-9.329 0.351-13.859 1.348-19.279 4.071-38.746 7.55-57.566 13.077-12.861 3.775-24.968 10.408-37.182 16.178-17.903 8.493-35.861 16.798-53.225 26.235-14.803 8.062-28.554 17.984-43.195 26.424-7.55 4.341-10.677 10.273-11.459 18.551-0.917 9.572-2.076 19.171-4.152 28.554-0.998 4.449-1.618 9.41-5.77 12.969-3.505 3.047-6.013 7.199-9.922 12.106 0-2.804-0.189-4.179 0.027-5.474 1.941-13.913 3.964-27.853 6.013-41.766 2.939-19.899 5.797-39.798 8.952-59.642 1.941-12.052 4.772-23.997 6.525-36.104 3.694-25.723 9.976-51.149 8.386-77.519-0.404-7.010 0.701-14.129 0.728-21.193 0.027-5.258-0.674-10.516-0.809-15.773-0.404-14.156-0.674-28.311-1.025-42.44-0.027-0.674-0.081-1.321-0.135-2.319-12.538 7.846-24.617 15.935-33.839 27.502-5.905 7.388-11.783 14.884-17.391 22.541-1.079 1.456-1.186 3.937-0.998 5.851 1.105 14.776 2.238 29.552 3.721 44.3 1.807 17.796 3.991 35.537 5.905 53.333 0.863 8.305 1.537 16.663 2.049 25.022 1.079 17.391 2.535 34.782 2.804 52.227 0.135 8.736-2.022 17.499-3.047 26.262-0.971 8.763-1.672 17.607-2.696 26.37-1.025 8.628-0.539 17.607-4.88 25.804-3.964-2.481-5.743-5.447-5.015-10.165 2.022-12.996 3.586-26.046 5.5-39.070 1.914-12.861 3.236-25.696 2.076-38.773-1.753-19.845-2.885-39.717-4.584-59.561-1.429-16.717-3.289-33.407-5.015-50.097-0.054-0.593-0.458-1.186-0.728-1.753-0.485-0.162-0.998-0.27-1.51-0.404z" fill="rgb(142, 118, 106)"></path>
  <path style="fill: rgb(69, 28, 21);" d="M129.582 440.733c0.27 54.6-6.309 107.070-28.581 156.871-0.27-0.243-1.402-1.052-2.346-1.995-11.567-11.54-23.026-23.161-34.675-34.621-12.942-12.7-20.195-28.042-20.869-46.053-0.377-10.408 1.079-20.735 5.689-30.28 0.485-0.971 1.079-2.184 1.968-2.669 23.889-12.457 47.806-24.833 71.695-37.236 2.022-1.079 3.937-2.238 7.118-4.017z" fill="rgb(142, 118, 106)"></path>
  <path style="fill: rgb(69, 28, 21);" d="M148.548 645.804c-4.853-4.961-8.952-9.167-13.104-13.347-6.013-6.094-12.268-11.972-18.038-18.308-1.537-1.645-2.615-4.746-2.265-6.903 3.020-17.796 6.363-35.564 9.734-53.306 1.914-10.219 4.422-20.357 6.040-30.603 1.402-8.898 2.022-17.93 2.777-26.936 1.348-16.178 2.615-32.356 3.802-48.561 0.297-4.017 0.027-8.089 0.027-13.886 5.123-3.829 11.513-8.655 17.93-13.428 0.62 0.351 1.267 0.674 1.86 1.025 0 16.097-0.566 32.194 0.216 48.264 0.674 14.749 2.508 29.444 4.53 44.058 1.914 13.832 4.799 27.502 7.118 41.28 0.324 1.86 0.027 3.937-0.431 5.824-5.689 23.269-11.513 46.538-17.202 69.834-1.105 4.53-1.833 9.167-2.993 14.991z" fill="rgb(142, 118, 106)"></path>
  <path style="fill: rgb(69, 28, 21);" d="M171.957 545.509c-1.78-10.462-4.179-20.896-5.258-31.439-1.833-18.308-3.289-36.724-4.071-55.086-0.539-12.807 0.216-25.696 0.728-38.503 0.081-1.726 1.941-3.991 3.586-4.934 5.339-3.047 10.947-5.581 16.582-8.386 4.638 47.024 0.728 92.915-11.567 138.348z" fill="rgb(142, 118, 106)"></path>
  <path style="fill: rgb(69, 28, 21);" d="M103.161 425.788c13.401-13.374 26.99-26.936 40.094-39.986 0.324 18.874-20.222 39.609-40.094 39.986z" fill="rgb(142, 118, 106)"></path>
</svg>
