<svg width="60" height="60" viewBox="0 0 1024 1024" xmlns="http://www.w3.org/2000/svg">
  <path style="fill: rgb(247, 188, 63);" d="M511.955 12.403c-24.71 0-49.433 9.38-68.216 28.163l-110.639 110.639h-105.188c-42.237 0-76.787 34.55-76.787 76.787v105.148l-110.639 110.639c-37.537 37.569-37.537 98.902 0 136.471l110.639 110.639v105.109c0 42.237 34.55 76.787 76.787 76.787h105.188l110.639 110.678c18.785 18.769 43.502 28.163 68.216 28.163s49.431-9.395 68.216-28.163l110.639-110.678h105.188c42.237 0 76.787-34.55 76.787-76.787v-105.109l110.639-110.639c37.567-37.567 37.567-98.905 0-136.471l-110.639-110.639v-105.148c0-42.237-34.55-76.787-76.787-76.787h-105.188l-110.639-110.639c-18.783-18.783-43.506-28.163-68.216-28.163z" fill="rgb(251, 200, 48)"></path>
  <path style="fill: rgb(69, 28, 21);" d="M506.879 15.446c-25.672 1.384-45.517 11.221-64.209 28.124-37.527 33.922-71.507 74.333-108.774 108.803-35.941 2.654-73.987-1.962-109.697 0.401-37.845 2.538-68.247 33.056-71.449 70.641l-0.458 110.534-116.735 117.716c-28.181 35.854-28.181 84.833 0 120.716l116.735 117.687c2.653 35.941-1.962 73.987 0.433 109.697 2.509 37.845 33.056 68.247 70.641 71.42l110.534 0.491c37.239 34.499 71.276 74.824 108.774 108.774 43.123 39.056 95.419 39.085 138.571 0 37.498-33.95 71.507-74.276 108.774-108.774 35.941-2.683 73.987 1.962 109.668-0.433 37.556-2.509 67.786-32.537 71.449-69.747l0.458-111.428 116.735-117.687c28.239-35.941 28.239-84.804 0-120.716l-116.735-117.716-0.581-112.207c-4.038-36.95-33.489-65.68-70.497-68.91l-110.505-0.458c-37.268-34.47-71.276-74.881-108.774-108.803-21.201-19.153-45.171-29.71-74.362-28.124zM502.434 0.36c32.479-2.567 63.257 8.682 86.794 30.778l107.592 107.303 108.053 0.286c14.105 1.933 27.258 6.346 39.2 14.076 61.872 39.95 35.306 113.418 41.739 174.944l113.159 114.139c35.537 44.161 32.681 106.409-6.144 147.397l-107.015 107.015-0.581 108.63c-1.933 14.105-6.346 27.287-14.076 39.229-39.95 61.844-113.418 35.306-174.944 41.71l-114.139 113.187c-44.219 35.566-106.351 32.739-147.398-6.172l-107.015-107.015-108.63-0.581c-14.105-1.933-27.287-6.346-39.229-14.047-61.872-39.979-35.277-113.389-41.71-174.944l-113.187-114.168c-35.537-44.162-32.652-106.38 6.173-147.397l107.015-106.986 0.548-108.659c1.933-14.105 6.374-27.258 14.076-39.2 39.979-61.872 113.418-35.306 174.944-41.739l114.139-113.187c17.163-13.817 38.508-22.845 60.632-24.605z" fill="rgb(88, 39, 26)"></path>
  <path style="fill: rgb(69, 28, 21);" d="M420.036 747.795c-22.787-11.538-49.815-14.797-73.929-5.134-1.99 0.809-11.769 5.221-11.307 7.327 9.951 7.471 22.874 17.307 35.854 17.249 4.298-0.029 24.374-2.048 28.095-3 7.846-2.019 15.576-11.048 21.288-16.442zM406.71 704.269v28.412l1.788 0.458c0 0.836-2.798-0.229-1.788 2.192l18.634 8.019c3.087-6.144 11.019-18.518 6.721-24.922-2.307-3.432-23.191-16.442-25.355-14.163zM314.291 681.276l-37.21-16.067c-3.374 16.269-23.797 23.191-38.623 23.076-2.336 0.262 2.307 5.019 3.317 5.596 5.798 3.144 12.663 2.337 18.807 0.581 2.798-0.809 6.432-3.663 8.884-3.491 5.423 0.343 15.144 9.576 23.047 8.827 7.413-0.72 22.903-9.317 21.778-18.518zM434.228 712.258c-0.147-9.057 1.529-18.028 0.952-27.114-1.067-16.528-4.962-22.268-15.576-34.152-3.923-4.413-8.509-8.48-12.865-12.432l0.029 59.449c10.355 1.471 19.586 7.615 27.46 14.249zM269.091 661.665c-18.345-9.807-38.969-14.971-56.421-26.508-8.047 8.019-16.932 17.192-28.845 18.518l62.622 28.008c2.164 0 17.047-7.615 18.663-9.346 2.452-2.683 2.423-7.499 3.98-10.673zM337.107 670.001c-17.624-9.634-37.008-15.288-55.296-23.307-10.644-4.644-20.624-10.903-31.066-16.009-10.673-5.192-21.922-9.346-32.277-15.201 0.752 6.404-3.173 11.74-4.414 17.711l18.893 8.192c16.73 7.24 33.633 14.48 50.363 21.576 14.74 6.231 31.181 9.346 43.96 19.961 1.529 1.933-1.356 2.135-1.933 3-2.020 2.971-3.058 7.125-5.971 10.038-3.721 3.75-11.451 6.75-16.528 8.336 7.529 7.673 17.365 4.586 26.883 4.24 1.212-0.376 10.471-11.509 11.019-12.98 2.538-6.808 0.98-16.615-0.605-23.537-1.442-0.147-2.567-1.76-3.029-2.019zM400.479 732.681c-0.172-21.489-1.038-42.892-0.895-64.411 0-2.538 0.923-4.701 0.952-7.038 0.114-9.98-0.376-19.932-2.25-29.768-9.577-7.413-21.547-16.211-33.056-20.22-6.721-2.365-26.047-7.356-32.681-7.384-5.163-0.029-6.087 6.836-8.394 10.961-0.458 0.809-1.99 1.125-2.885 2.654-5.365 9.028-4.125 24.518-4.096 34.7 0.923 2.711 15.144 7.701 18.23 9.317 1.269 0.662 8.769 5.307 9.202 5.885 1.212 1.586 3.606 13.99 3.808 16.615 1.442 19.73-11.884 33.489-31.383 33.604-1.010 10.009 3.721 20.163 11.221 26.537 20.365-14.682 48.373-17.278 72.228-11.451zM617.883 456.78c-21.461 1.096-44.94 6.087-61.844 19.874 1.442 7.615 2.827 14.942 8.278 20.739 18.865 20.047 39.373 24.691 66.401 19.297 14.711-2.971 26.133-14.221 34.268-26.134 2.048-3.029 11.711-18.98 10.413-21.605-17.076-11.538-37.441-13.211-57.517-12.173zM476.86 403.244l-21.288 3.548c-0.401 6.952 6.663 26.826 13.961 28.268 5.336 1.067 17.22-3.75 23.307-3.404-7.903-8.279-15.115-16.384-15.98-28.412zM538.126 391.706l-55.065 11.134c1.702 11.394 8.971 19.788 17.538 26.883l36.056-5.336 1.471-1.154zM267.301 386.37c-6.865 2.394-20.307 7.096-21.98 14.855-3.461 15.778-0.147 36.518 0.172 52.671 4.24 6.057 12.663 14.249 20.48 14.249 2.769 0 8.596-0.605 11.596-0.923 1.327-0.147 2.192-0.090 3.029-1.384-5.365-4.529-8.567-10.211-10.586-16.903-2.827-9.461-3.317-21.951-3.634-31.874-0.343-9.98-0.343-20.913 0.923-30.691zM308.923 386.484c-11.798-4.067-25.066-3.663-37.095-0.923 1.298 21.461-5.221 53.075 7.529 71.795 0.809 1.212 7.182 7.644 8.134 7.903 3.374 0.952 9.865-2.509 13.124-2.105 1.067 0.114 8.307 5.509 11.048 6.289 8.105 2.279 19.038-4.471 27.547-4.038l-11.105-4.414c-11.682-6.75-10.298-23.97-8.798-35.566-5.683-3.202-11.307 0.809-16.413 1.442-0.72 0.090-2.625 1.067-1.846-0.952 2.365-6.087 14.97-6.202 19.499-3.548 5.596 3.289 0.895 13.586 1.817 17.567 0.147 0.638 1.5 0.515 1.702 1.269 1.414 4.701 0.752 7.067 4.125 11.682 6.087 8.25 9.519 3.952 18.143 3.634-10.067-13.413-11.336-34.787-6.461-50.421 0.458-1.471 4.615-8.019 5.596-8.596 2.567-1.529 14.422-2.192 19.153-3.952 1.24-0.433 1.529 0.343 1.24-1.846-5.538-0.662-11.336-4.327-16.643-5.105-12.749-1.875-27.518 4.529-40.181 6zM460.878 436.098c-5.336-3.115-10.384-13.442-12.028-19.499-0.98-3.606-2.885-16.47-3-20.105-0.058-2.539 1.933-13.009 0.809-14.567-16.211 3.894-32.71 6.49-49.008 10.038-9.807 2.135-19.441 4.125-29.306 6.202-3.115 0.695-14.509 3.432-16.644 4.673-1.298 0.72-1.327 1.471-1.788 2.653-0.923 2.365-1.644 10.355-1.788 13.298-0.638 12.461 0.98 24.864 8.596 35.104zM539.019 353.515c-2.798-0.809-4.558 1.125-6.692 1.731-20.393 5.567-42.864 8.019-62.593 13.788-4.24 1.24-8.711 3.75-12.721 5.711l-0.581 26.71 81.573-16.99zM309.039 380.167v-12.894c0-6-5.711-10.125-10.673-12.432-9.548-4.414-33.402-6.634-42.171-0.433-2.307 1.615-10.211 12.317-10.211 14.653v21.749c18.72-12.519 41.219-14.509 63.055-10.644zM695.301 296.689v67.93c1.875 1.096 7.586 3.865 9.317 3.894 1.5 0.029 14.538-3.894 15.605-4.99 11.625-11.769 7.327-35.768 9.692-50.507l-0.836-1.673zM329.288 257.864c-17.97 1.442-35.133 9.951-48.661 21.489 0 2.192 17.047 11.048 20.018 11.942 7.558 2.337 27.778 5.192 35.45 4.471 14.797-1.327 34.412-13.153 44.854-23.509-13.99-11.596-33.72-15.807-51.661-14.394zM631.381 245.172v185.156c0 4.067-8.567 0.662-10.298 0.548-10.673-0.836-27.258 1.125-37.643 3.894-12.576 3.346-24.23 9.721-33.604 18.72l1.644 17.249c14.422-11.942 35.998-18.461 54.603-20.422 24.085-2.539 50.046-1.586 71.045 11.538 2.596-4.038 3.663-7.615 4.010-12.836 1.875-27.23-0.204-58.469-0.058-86.217 0.114-24.951 1.154-49.498 0.029-74.564-0.376-8.827-0.662-17.653-1.038-26.48-13.471-10.932-31.326-17.019-48.69-16.586zM623.391 172.367c-13.615 1.558-25.73 10.153-36.345 18.288-20.134 15.432-34.21 28.989-35.623 55.815-3.144 59.247 4.356 119.966 1.846 179.444-0.229 5.481-1.442 11.74-1.788 17.278 19.211-17.567 47.017-19.355 71.91-18.634zM680.215 253.162v-28.845c0-3.778-4.615-20.653-6.172-24.893-2.481-6.721-6.202-13.009-11.653-17.653-8.538-7.298-19.355-13.557-31.008-12.086v71.045c13.153 0.147 27.576 2.452 39.691 7.846 1.471 0.638 8.394 5.423 9.144 4.586zM298.396 181.252h11.538c0.809 0.777-0.523 19.268-0.090 22.701 0.229 1.644 1.673 1.154 1.846 1.875 1.471 6.346 0 8.942-5.596 11.105-17.393 6.634-28.845 11.221-41.479 25.989-3.115 3.634-8.077 8.452-5.105 13.211l15.345 18.345c28.816-27.23 78.891-33.777 110.101-7.125 1.384-0.029 11.855-19.586 13.038-22.47 4.903-11.971 5.134-16.961 5.134-29.422-0.058-30.922-0.262-61.901 0.491-92.823l62.132-62.19c26.162-22.73 65.507-22.788 91.929-0.433l120.774 120.774 121.235 0.433 19.066 5.365c-7.442 16.788-9.375 34.787-11.538 52.815-0.752 6.172-0.147 11.884-2.25 18.172-4.211 12.49-20.538 24.489-27.23 36.72-5.336 9.721-7.932 22.037-11.423 32.537l-16.413-7.067c-1.673-4.067 1.442-15.288-1.846-17.682-5.452-4.010-20.451-1.182-26.999-0.058 4.125 4.038 9.865 4.067 15.115 3.519-0.319 20.913 7.356 56.651-16.874 67.064-3 1.269-7.413 0.752-9.75 4.442 6.172 4.933 13.471-0.548 20.624 0.662 1.731 0.286 19.384 6.634 20.191 7.327 4.154 3.461-4.586 23.768-5.971 28.672-7.009 25.037-6.087 49.873-12.548 75.343-4.182 16.413-12.894 45.835-24.98 57.632-3.606 3.519-2.394 0.809-5.048 0.515-1.788-0.172-7.701 6.346-9.75 7.731-15.807 10.759-36.662 19.557-51.229 30.489-1.673 1.269-11.365 8.625-9.461 10.5 1.24 0.172 2.394-0.058 3.576-0.401 5.048-1.5 16.644-9.778 22.73-12.778 9.836-4.846 20.191-8.913 30.518-12.548 1.76 1.731-14.105 19.47-15.836 21.893-7.99 11.221-12.201 22.586-22.441 32.624-10.846 10.615-25.499 20.624-41.248 20.97-7.788 0.172-15.144 0.548-22.989 0.895-10.413 0.491-28.528-3.519-38.854-6.49-2.307-0.662-10.99-3.432-12.23-4.644-1.384-1.327-3.346-9.577-4.586-12.288-3.374-7.384-8.855-13.701-12.086-21.663-4.99-12.259-4.182-22.095-7.269-33.575-1.471-5.365-12.663-18.634-15.922-25.816-2.625-5.769-2.596-12.836-4.125-16.297-1.327-3-12.749-11.076-15.98-15.115-3.98-4.933-10.701-14.422-12.605-20.22-1.529-4.644-1.817-9.865-3.404-14.394-0.491-1.384-0.923-4.182-3.058-3.576l4.673 36.633 19.124 19.038c-2.885 19.038 16.297 32.22 17.913 48.69 2.827 28.758 5.365 27.691 16.153 52.209 3.374 7.644 2.365 12.23 9.836 17.711 9.115 6.721 21.576 9.029 32.249 12.144l6.404 15.432c-5.567 9.202-14.624 17.076-19.499 26.653-2.509 4.933-3.491 10.413-5.885 15.432-8.221 17.22-29.624 56.709-43.671 68.218-10.24 8.365-25.268 9.836-36.143 16.24-11.74 6.894-20.653 13.673-33.72 19.586-18.403 8.307-23.509 9.98-44.248 8.105-33.316-3-73.007-20.711-101.967-37.47-6.923-4.010-14.134-8.74-20.134-14.019l58.901 1.788 0.605-3.172-24.201-4.182c-17.826-1.096-28.153-12.201-42.085-19.211-17.942-9.028-42.142-9.519-58.065-22.73-3.721-3.087-6.461-7.384-10.673-9.951l-0.433-41.104-53.709-54.171c16.499 5.307 31.585 14.336 46.123 23.566 8.798 2.135 15.374-1.442 22.182-6.346 14.913-10.788 15.605-22.672 13.817-40.325-4.701-4.24-9.75-8.077-15.057-11.567-24.172-15.807-50.277-28.21-75.978-41.248-17.797-9.029-38.421-21.201-56.824-28.412-6.289-2.481-11.74-3.865-18.634-3.115-0.777-16.182 3.404-32.133 12.951-45.229l93.602-94.207c4.962 18.576 5.509 38.277 10.211 56.853 3.663 14.422 8.278 16.73 15.576 27.922 7.096 10.875 15.836 31.412 25.787 38.162 6.461 4.384 8.827 4.442 15.028 10.73 10.644 10.817 16.903 18.403 25.037 32.681 3.461 6.115 5.307 13.471 10.5 18.374-1.673-7.817-2.856-15.749-5.538-23.336-4.211-11.913-16.557-32.451-26.018-40.585-2.913-2.509-7.961-4.875-10.182-7.558-3.404-4.067-5.279-11.855-8.48-16.384-5.307-7.442-11.74-9.605-15.922-19.615-10.5-25.066-14.336-34.989-17.336-62.593-0.952-8.74-3.432-20.105-3.519-28.556 0-1.327 0.172-1.529 0.809-2.567 2.365-4.067 15.288-12.98 16.009-16.845v-119.88c-0.343-18.259 22.441-43.037 40.441-43.037h34.181c0.695 18.951-3 38.046 0.895 56.824 1.962-1.5 3.173-4.298 4.875-6.231 6.576-7.499 15.086-13.124 23.826-17.913 2.856-1.558 13.038-4.788 13.038-7.384z" fill="rgb(88, 39, 26)"></path>
  <path style="fill: rgb(69, 28, 21);" d="M849.828 389.931c-11.365-2.452-21.807-7.846-32.422-12.432-2.365 4.125-2.25 8.509-5.019 12.721-7.067 10.759-17.768 13.644-30.028 12.576 9.663 12.028 25.874 17.682 41.017 14.394 14.105-3.029 22.009-14.336 26.451-27.258zM815.186 369.047c20.105 10.009 42.546 14.221 63.517 21.749 4.298 1.529 12.403 4.731 16.153 6.952 5.885 3.491 11.567 12.23 17.134 16.586l-55.93-20.855c-0.952 11.019-9.49 20.018-17.768 26.624l102.111 38.191c-9.288 13.499-16.24 28.643-23.855 43.21-4.76 9.115-9.75 18.201-14.509 27.23-6.808 12.922-19.932 44.479-27.864 53.825-9.086 10.73-26.335 19.643-35.941 30.633l-55.007 29.797c15.778-23.855 32.508-47.363 45.777-72.776 8.394-16.067 18.692-36.893 25.412-53.594 2.192-5.394 5.423-11.624 4.73-17.48-13.182 15.778-19.73 35.566-30.806 52.671-31.181 48.2-63.661 96.429-104.13 137.417-7.327 21.864-25.21 41.681-40.469 58.988-14.365 16.297-28.326 21.316-45.546 33.489-20.74 14.653-32.133 28.585-49.844 45.142-17.942 16.759-43.037 30.056-64.728 40.931-9.519 4.788-28.528 16.845-38.306 17.653-8.567 0.72-29.104-6.692-36.777-11.163-14.971-8.74-28.124-22.182-44.479-29.249 17.076-6.404 34.383-13.298 49.988-22.816 4.846-2.942 9.432-7.327 14.047-9.952 18.143-10.326 28.845-7.471 43.758-26.364 19.643-24.893 29.133-50.19 43.671-77.102 6.721-12.403 20.451-23.451 27.287-36.2 24.287-12.519 50.306-14.278 71.68-32.681 10.528-9.086 11.509-17.567 18.778-28.268 21.259-31.239 46.094-53.334 59.997-90.054 4.414-11.625 10.182-27.287 13.298-39.114 5.942-22.412 2.25-44.219 9.75-67.497 2.625-8.105 7.615-15.201 8.279-24.143 12.519 2.798 18.836 11.394 31.902 3.923 16.759-9.576 11.653-34.845 10.586-50.882l-28.239-10.817c-1.529-1.76 8.971-29.595 11.307-33.431 4.356-7.154 12.374-13.932 17.422-20.768 17.076-23.076 12.115-39.719 16.759-65.853 1.038-5.913 3.289-11.596 4.212-17.538 8.452 6.374 12.201 16.961 14.163 27.085l0.029 121.639 20.422 21.749-47.969-17.74z" fill="rgb(88, 39, 26)"></path>
  <path style="fill: rgb(69, 28, 21);" d="M841.316 669.147c-4.182 4.471-11.855 9.461-14.422 13.499-6.634 10.442-12.49 23.97-18.288 35.018-5.567 3.548-26.278 17.365-31.845 16.615-0.581-0.058-6.317-2.279-7.096-2.683-9.98-5.307-17.942-18.518-26.278-26.191l0.72-3.404c17.134-16.182 31.153-38.191 51.286-50.825 5.019-3.173 20.884-11.711 26.018-13.124 5.077-1.384 8.077 3.721 11.596 6.231 4.384 3.087 8.077 4.038 11.163 9.23 5.855 9.807 2.769 9.605-2.855 15.634z" fill="rgb(88, 39, 26)"></path>
  <path style="fill: rgb(69, 28, 21);" d="M842.723 680.295v26.191c0 0.777-6.519 12.028-7.615 13.701-9.432 13.903-26.682 28.181-40.758 37.383-4.038 2.625-19.643 12.346-23.307 13.096-1.99 0.401-10.326 1.529-12.23 1.529-7.298 0.058-18.115-13.211-23.537-17.768-6.721-5.683-14.653-10.038-20.422-16.845l18.634-20.884c5.798 11.451 25.182 27.403 38.594 26.682 8.077-0.433 36.547-16.672 41.825-23.105 2.538-3.087 5.625-12.23 8.25-16.586 2.423-4.038 5.596-7.471 8.163-11.365 1.269-1.962 1.615-4.817 3.115-6.663 1.673-2.077 6.606-4.586 9.288-5.365z" fill="rgb(88, 39, 26)"></path>
  <path style="fill: rgb(69, 28, 21);" d="M662.763 315.026c1.038 0.895 3.087 0.058 3.289 2.509 0.172 1.875-1.269 11.019-1.875 13.269-0.204 0.695-1.673 4.615-1.875 4.788-0.433 0.319-6 0.98-6.952 0.695-2.885-0.865-2.077-3.029-2.913-3.836-0.662-0.662-2.625-0.090-3.202-1.673-1.212-3.346 1.182-16.73 4.558-18.345 5.019-2.423 6.202 0.229 8.971 2.596z" fill="rgb(88, 39, 26)"></path>
  <path style="fill: rgb(69, 28, 21);" d="M662.172 389.666c-2.337 2.827-3.693 4.99-8.047 4.442-3.432-0.433-5.105-4.99-8.394-5.221-0.204-6.894 0.581-18.576 10.038-16.701 7.125 1.414 6.952 11.653 6.404 17.48z" fill="rgb(88, 39, 26)"></path>
  <path style="fill: rgb(69, 28, 21);" d="M371.83 652.074c22.384-5.105 15.663 28.931-2.337 16.153-6.461-4.558-3.461-14.826 2.337-16.153z" fill="rgb(88, 39, 26)"></path>
  <path style="fill: rgb(69, 28, 21);" d="M376.382 411.36c1.010 1.125-0.581 8.682-1.817 9.461-3.634 2.279-11.971-1.067-10.528-6.461 2.192-8.336 6.317-6.029 12.346-3z" fill="rgb(88, 39, 26)"></path>
</svg>
